<svg xmlns="http://www.w3.org/2000/svg" xmlns:xlink="http://www.w3.org/1999/xlink" width="689pt" height="3071pt" viewBox="0 0 689 3070.75"><g id="graph0" class="graph" transform="scale(1 1) rotate(0) translate(4 3066.75)"><title>structs</title><polygon fill="#fff" stroke="none" points="-4 4 -4 -3066.75 685 -3066.75 685 4 -4 4"/><g id="node1" class="node"><title>_sqlx_migrations</title><polygon fill="none" stroke="#000" points="71.75 -141.25 71.75 -163.75 182 -163.75 182 -141.25 71.75 -141.25"/><text x="77" y="-148.45" font-family="Times,serif" font-size="14" font-weight="bold" text-anchor="start">_sqlx_migrations</text><polygon fill="none" stroke="#000" points="71.75 -116.5 71.75 -141.25 92 -141.25 92 -116.5 71.75 -116.5"/><text x="74.75" y="-124.95" font-family="Times,serif" font-size="14" text-anchor="start">🔑</text><polygon fill="none" stroke="#000" points="92 -116.5 92 -141.25 182 -141.25 182 -116.5 92 -116.5"/><text x="117.12" y="-123.83" font-family="Times,serif" font-size="14" text-anchor="start">version</text><polygon fill="none" stroke="#000" points="71.75 -94 71.75 -116.5 92 -116.5 92 -94 71.75 -94"/><polygon fill="none" stroke="#000" points="92 -94 92 -116.5 182 -116.5 182 -94 92 -94"/><text x="107" y="-100.2" font-family="Times,serif" font-size="14" text-anchor="start">description</text><polygon fill="none" stroke="#000" points="71.75 -71.5 71.75 -94 92 -94 92 -71.5 71.75 -71.5"/><polygon fill="none" stroke="#000" points="92 -71.5 92 -94 182 -94 182 -71.5 92 -71.5"/><text x="104" y="-77.7" font-family="Times,serif" font-size="14" text-anchor="start">installed_on</text><polygon fill="none" stroke="#000" points="71.75 -49 71.75 -71.5 92 -71.5 92 -49 71.75 -49"/><polygon fill="none" stroke="#000" points="92 -49 92 -71.5 182 -71.5 182 -49 92 -49"/><text x="116.75" y="-55.2" font-family="Times,serif" font-size="14" text-anchor="start">success</text><polygon fill="none" stroke="#000" points="71.75 -26.5 71.75 -49 92 -49 92 -26.5 71.75 -26.5"/><polygon fill="none" stroke="#000" points="92 -26.5 92 -49 182 -49 182 -26.5 92 -26.5"/><text x="109.62" y="-32.7" font-family="Times,serif" font-size="14" text-anchor="start">checksum</text><polygon fill="none" stroke="#000" points="71.75 -4 71.75 -26.5 92 -26.5 92 -4 71.75 -4"/><polygon fill="none" stroke="#000" points="92 -4 92 -26.5 182 -26.5 182 -4 92 -4"/><text x="95" y="-10.2" font-family="Times,serif" font-size="14" text-anchor="start">execution_time</text></g><g id="node2" class="node"><title>email_setting</title><polygon fill="none" stroke="#000" points="70.62 -371.75 70.62 -394.25 183.12 -394.25 183.12 -371.75 70.62 -371.75"/><text x="88.25" y="-378.95" font-family="Times,serif" font-size="14" font-weight="bold" text-anchor="start">email_setting</text><polygon fill="none" stroke="#000" points="70.62 -347 70.62 -371.75 90.88 -371.75 90.88 -347 70.62 -347"/><text x="73.62" y="-355.45" font-family="Times,serif" font-size="14" text-anchor="start">🔑</text><polygon fill="none" stroke="#000" points="90.88 -347 90.88 -371.75 183.12 -371.75 183.12 -347 90.88 -347"/><text x="131.75" y="-354.32" font-family="Times,serif" font-size="14" text-anchor="start">id</text><polygon fill="none" stroke="#000" points="70.62 -324.5 70.62 -347 90.88 -347 90.88 -324.5 70.62 -324.5"/><polygon fill="none" stroke="#000" points="90.88 -324.5 90.88 -347 183.12 -347 183.12 -324.5 90.88 -324.5"/><text x="93.88" y="-330.7" font-family="Times,serif" font-size="14" text-anchor="start">smtp_username</text><polygon fill="none" stroke="#000" points="70.62 -302 70.62 -324.5 90.88 -324.5 90.88 -302 70.62 -302"/><polygon fill="none" stroke="#000" points="90.88 -302 90.88 -324.5 183.12 -324.5 183.12 -302 90.88 -302"/><text x="94.62" y="-308.2" font-family="Times,serif" font-size="14" text-anchor="start">smtp_password</text><polygon fill="none" stroke="#000" points="70.62 -279.5 70.62 -302 90.88 -302 90.88 -279.5 70.62 -279.5"/><polygon fill="none" stroke="#000" points="90.88 -279.5 90.88 -302 183.12 -302 183.12 -279.5 90.88 -279.5"/><text x="103.62" y="-285.7" font-family="Times,serif" font-size="14" text-anchor="start">smtp_server</text><polygon fill="none" stroke="#000" points="70.62 -257 70.62 -279.5 90.88 -279.5 90.88 -257 70.62 -257"/><polygon fill="none" stroke="#000" points="90.88 -257 90.88 -279.5 183.12 -279.5 183.12 -257 90.88 -257"/><text x="99.88" y="-263.2" font-family="Times,serif" font-size="14" text-anchor="start">from_address</text><polygon fill="none" stroke="#000" points="70.62 -234.5 70.62 -257 90.88 -257 90.88 -234.5 70.62 -234.5"/><polygon fill="none" stroke="#000" points="90.88 -234.5 90.88 -257 183.12 -257 183.12 -234.5 90.88 -234.5"/><text x="108.12" y="-240.7" font-family="Times,serif" font-size="14" text-anchor="start">encryption</text><polygon fill="none" stroke="#000" points="70.62 -212 70.62 -234.5 90.88 -234.5 90.88 -212 70.62 -212"/><polygon fill="none" stroke="#000" points="90.88 -212 90.88 -234.5 183.12 -234.5 183.12 -212 90.88 -212"/><text x="101.38" y="-218.2" font-family="Times,serif" font-size="14" text-anchor="start">auth_method</text><polygon fill="none" stroke="#000" points="70.62 -189.5 70.62 -212 90.88 -212 90.88 -189.5 70.62 -189.5"/><polygon fill="none" stroke="#000" points="90.88 -189.5 90.88 -212 183.12 -212 183.12 -189.5 90.88 -189.5"/><text x="109.25" y="-195.7" font-family="Times,serif" font-size="14" text-anchor="start">smtp_port</text></g><g id="node3" class="node"><title>integrations</title><polygon fill="none" stroke="#000" points="339.75 -580 339.75 -602.5 441.75 -602.5 441.75 -580 339.75 -580"/><text x="356.25" y="-587.2" font-family="Times,serif" font-size="14" font-weight="bold" text-anchor="start">integrations</text><polygon fill="none" stroke="#000" points="339.75 -555.25 339.75 -580 360 -580 360 -555.25 339.75 -555.25"/><text x="342.75" y="-563.7" font-family="Times,serif" font-size="14" text-anchor="start">🔑</text><polygon fill="none" stroke="#000" points="360 -555.25 360 -580 441.75 -580 441.75 -555.25 360 -555.25"/><text x="395.62" y="-562.58" font-family="Times,serif" font-size="14" text-anchor="start">id</text><polygon fill="none" stroke="#000" points="339.75 -532.75 339.75 -555.25 360 -555.25 360 -532.75 339.75 -532.75"/><polygon fill="none" stroke="#000" points="360 -532.75 360 -555.25 441.75 -555.25 441.75 -532.75 360 -532.75"/><text x="388.88" y="-538.95" font-family="Times,serif" font-size="14" text-anchor="start">kind</text><polygon fill="none" stroke="#000" points="339.75 -510.25 339.75 -532.75 360 -532.75 360 -510.25 339.75 -510.25"/><polygon fill="none" stroke="#000" points="360 -510.25 360 -532.75 441.75 -532.75 441.75 -510.25 360 -510.25"/><text x="363" y="-516.45" font-family="Times,serif" font-size="14" text-anchor="start">display_name</text><polygon fill="none" stroke="#000" points="339.75 -487.75 339.75 -510.25 360 -510.25 360 -487.75 339.75 -487.75"/><polygon fill="none" stroke="#000" points="360 -487.75 360 -510.25 441.75 -510.25 441.75 -487.75 360 -487.75"/><text x="365.25" y="-493.95" font-family="Times,serif" font-size="14" text-anchor="start">access_token</text><polygon fill="none" stroke="#000" points="339.75 -465.25 339.75 -487.75 360 -487.75 360 -465.25 339.75 -465.25"/><polygon fill="none" stroke="#000" points="360 -465.25 360 -487.75 441.75 -487.75 441.75 -465.25 360 -465.25"/><text x="377.25" y="-471.45" font-family="Times,serif" font-size="14" text-anchor="start">api_base</text><polygon fill="none" stroke="#000" points="339.75 -442.75 339.75 -465.25 360 -465.25 360 -442.75 339.75 -442.75"/><polygon fill="none" stroke="#000" points="360 -442.75 360 -465.25 441.75 -465.25 441.75 -442.75 360 -442.75"/><text x="387.75" y="-448.95" font-family="Times,serif" font-size="14" text-anchor="start">error</text><polygon fill="none" stroke="#000" points="339.75 -420.25 339.75 -442.75 360 -442.75 360 -420.25 339.75 -420.25"/><polygon fill="none" stroke="#000" points="360 -420.25 360 -442.75 441.75 -442.75 441.75 -420.25 360 -420.25"/><text x="373.12" y="-426.45" font-family="Times,serif" font-size="14" text-anchor="start">created_at</text><polygon fill="none" stroke="#000" points="339.75 -397.75 339.75 -420.25 360 -420.25 360 -397.75 339.75 -397.75"/><polygon fill="none" stroke="#000" points="360 -397.75 360 -420.25 441.75 -420.25 441.75 -397.75 360 -397.75"/><text x="371.25" y="-403.95" font-family="Times,serif" font-size="14" text-anchor="start">updated_at</text><polygon fill="none" stroke="#000" points="339.75 -375.25 339.75 -397.75 360 -397.75 360 -375.25 339.75 -375.25"/><polygon fill="none" stroke="#000" points="360 -375.25 360 -397.75 441.75 -397.75 441.75 -375.25 360 -375.25"/><text x="382.12" y="-381.45" font-family="Times,serif" font-size="14" text-anchor="start">synced</text></g><g id="node4" class="node"><title>invitations</title><polygon fill="none" stroke="#000" points="86 -743.75 86 -766.25 167.75 -766.25 167.75 -743.75 86 -743.75"/><text x="96.5" y="-750.95" font-family="Times,serif" font-size="14" font-weight="bold" text-anchor="start">invitations</text><polygon fill="none" stroke="#000" points="86 -719 86 -743.75 106.25 -743.75 106.25 -719 86 -719"/><text x="89" y="-727.45" font-family="Times,serif" font-size="14" text-anchor="start">🔑</text><polygon fill="none" stroke="#000" points="106.25 -719 106.25 -743.75 167.75 -743.75 167.75 -719 106.25 -719"/><text x="131.75" y="-726.33" font-family="Times,serif" font-size="14" text-anchor="start">id</text><polygon fill="none" stroke="#000" points="86 -696.5 86 -719 106.25 -719 106.25 -696.5 86 -696.5"/><polygon fill="none" stroke="#000" points="106.25 -696.5 106.25 -719 167.75 -719 167.75 -696.5 106.25 -696.5"/><text x="121.62" y="-702.7" font-family="Times,serif" font-size="14" text-anchor="start">email</text><polygon fill="none" stroke="#000" points="86 -674 86 -696.5 106.25 -696.5 106.25 -674 86 -674"/><polygon fill="none" stroke="#000" points="106.25 -674 106.25 -696.5 167.75 -696.5 167.75 -674 106.25 -674"/><text x="124.25" y="-680.2" font-family="Times,serif" font-size="14" text-anchor="start">code</text><polygon fill="none" stroke="#000" points="86 -651.5 86 -674 106.25 -674 106.25 -651.5 86 -651.5"/><polygon fill="none" stroke="#000" points="106.25 -651.5 106.25 -674 167.75 -674 167.75 -651.5 106.25 -651.5"/><text x="109.25" y="-657.7" font-family="Times,serif" font-size="14" text-anchor="start">created_at</text></g><g id="node5" class="node"><title>job_runs</title><polygon fill="none" stroke="#000" points="84.12 -1042.5 84.12 -1065 169.62 -1065 169.62 -1042.5 84.12 -1042.5"/><text x="101" y="-1049.7" font-family="Times,serif" font-size="14" font-weight="bold" text-anchor="start">job_runs</text><polygon fill="none" stroke="#000" points="84.12 -1017.75 84.12 -1042.5 104.38 -1042.5 104.38 -1017.75 84.12 -1017.75"/><text x="87.12" y="-1026.2" font-family="Times,serif" font-size="14" text-anchor="start">🔑</text><polygon fill="none" stroke="#000" points="104.38 -1017.75 104.38 -1042.5 169.62 -1042.5 169.62 -1017.75 104.38 -1017.75"/><text x="131.75" y="-1025.08" font-family="Times,serif" font-size="14" text-anchor="start">id</text><polygon fill="none" stroke="#000" points="84.12 -995.25 84.12 -1017.75 104.38 -1017.75 104.38 -995.25 84.12 -995.25"/><polygon fill="none" stroke="#000" points="104.38 -995.25 104.38 -1017.75 169.62 -1017.75 169.62 -995.25 104.38 -995.25"/><text x="128.38" y="-1001.45" font-family="Times,serif" font-size="14" text-anchor="start">job</text><polygon fill="none" stroke="#000" points="84.12 -972.75 84.12 -995.25 104.38 -995.25 104.38 -972.75 84.12 -972.75"/><polygon fill="none" stroke="#000" points="104.38 -972.75 104.38 -995.25 169.62 -995.25 169.62 -972.75 104.38 -972.75"/><text x="117.5" y="-978.95" font-family="Times,serif" font-size="14" text-anchor="start">start_ts</text><polygon fill="none" stroke="#000" points="84.12 -950.25 84.12 -972.75 104.38 -972.75 104.38 -950.25 84.12 -950.25"/><polygon fill="none" stroke="#000" points="104.38 -950.25 104.38 -972.75 169.62 -972.75 169.62 -950.25 104.38 -950.25"/><text x="119.38" y="-956.45" font-family="Times,serif" font-size="14" text-anchor="start">end_ts</text><polygon fill="none" stroke="#000" points="84.12 -927.75 84.12 -950.25 104.38 -950.25 104.38 -927.75 84.12 -927.75"/><polygon fill="none" stroke="#000" points="104.38 -927.75 104.38 -950.25 169.62 -950.25 169.62 -927.75 104.38 -927.75"/><text x="110.75" y="-933.95" font-family="Times,serif" font-size="14" text-anchor="start">exit_code</text><polygon fill="none" stroke="#000" points="84.12 -905.25 84.12 -927.75 104.38 -927.75 104.38 -905.25 84.12 -905.25"/><polygon fill="none" stroke="#000" points="104.38 -905.25 104.38 -927.75 169.62 -927.75 169.62 -905.25 104.38 -905.25"/><text x="120.5" y="-911.45" font-family="Times,serif" font-size="14" text-anchor="start">stdout</text><polygon fill="none" stroke="#000" points="84.12 -882.75 84.12 -905.25 104.38 -905.25 104.38 -882.75 84.12 -882.75"/><polygon fill="none" stroke="#000" points="104.38 -882.75 104.38 -905.25 169.62 -905.25 169.62 -882.75 104.38 -882.75"/><text x="121.62" y="-888.95" font-family="Times,serif" font-size="14" text-anchor="start">stderr</text><polygon fill="none" stroke="#000" points="84.12 -860.25 84.12 -882.75 104.38 -882.75 104.38 -860.25 84.12 -860.25"/><polygon fill="none" stroke="#000" points="104.38 -860.25 104.38 -882.75 169.62 -882.75 169.62 -860.25 104.38 -860.25"/><text x="109.25" y="-866.45" font-family="Times,serif" font-size="14" text-anchor="start">created_at</text><polygon fill="none" stroke="#000" points="84.12 -837.75 84.12 -860.25 104.38 -860.25 104.38 -837.75 84.12 -837.75"/><polygon fill="none" stroke="#000" points="104.38 -837.75 104.38 -860.25 169.62 -860.25 169.62 -837.75 104.38 -837.75"/><text x="107.38" y="-843.95" font-family="Times,serif" font-size="14" text-anchor="start">updated_at</text><polygon fill="none" stroke="#000" points="84.12 -815.25 84.12 -837.75 104.38 -837.75 104.38 -815.25 84.12 -815.25"/><polygon fill="none" stroke="#000" points="104.38 -815.25 104.38 -837.75 169.62 -837.75 169.62 -815.25 104.38 -815.25"/><text x="109.62" y="-821.45" font-family="Times,serif" font-size="14" text-anchor="start">command</text><polygon fill="none" stroke="#000" points="84.12 -792.75 84.12 -815.25 104.38 -815.25 104.38 -792.75 84.12 -792.75"/><polygon fill="none" stroke="#000" points="104.38 -792.75 104.38 -815.25 169.62 -815.25 169.62 -792.75 104.38 -792.75"/><text x="110.75" y="-798.95" font-family="Times,serif" font-size="14" text-anchor="start">started_at</text></g><g id="node6" class="node"><title>ldap_credential</title><polygon fill="none" stroke="#000" points="72.5 -1386 72.5 -1408.5 181.25 -1408.5 181.25 -1386 72.5 -1386"/><text x="81.88" y="-1393.2" font-family="Times,serif" font-size="14" font-weight="bold" text-anchor="start">ldap_credential</text><polygon fill="none" stroke="#000" points="72.5 -1361.25 72.5 -1386 92.75 -1386 92.75 -1361.25 72.5 -1361.25"/><text x="75.5" y="-1369.7" font-family="Times,serif" font-size="14" text-anchor="start">🔑</text><polygon fill="none" stroke="#000" points="92.75 -1361.25 92.75 -1386 181.25 -1386 181.25 -1361.25 92.75 -1361.25"/><text x="131.75" y="-1368.58" font-family="Times,serif" font-size="14" text-anchor="start">id</text><polygon fill="none" stroke="#000" points="72.5 -1338.75 72.5 -1361.25 92.75 -1361.25 92.75 -1338.75 72.5 -1338.75"/><polygon fill="none" stroke="#000" points="92.75 -1338.75 92.75 -1361.25 181.25 -1361.25 181.25 -1338.75 92.75 -1338.75"/><text x="125.75" y="-1344.95" font-family="Times,serif" font-size="14" text-anchor="start">host</text><polygon fill="none" stroke="#000" points="72.5 -1316.25 72.5 -1338.75 92.75 -1338.75 92.75 -1316.25 72.5 -1316.25"/><polygon fill="none" stroke="#000" points="92.75 -1316.25 92.75 -1338.75 181.25 -1338.75 181.25 -1316.25 92.75 -1316.25"/><text x="126.12" y="-1322.45" font-family="Times,serif" font-size="14" text-anchor="start">port</text><polygon fill="none" stroke="#000" points="72.5 -1293.75 72.5 -1316.25 92.75 -1316.25 92.75 -1293.75 72.5 -1293.75"/><polygon fill="none" stroke="#000" points="92.75 -1293.75 92.75 -1316.25 181.25 -1316.25 181.25 -1293.75 92.75 -1293.75"/><text x="114.88" y="-1299.95" font-family="Times,serif" font-size="14" text-anchor="start">bind_dn</text><polygon fill="none" stroke="#000" points="72.5 -1271.25 72.5 -1293.75 92.75 -1293.75 92.75 -1271.25 72.5 -1271.25"/><polygon fill="none" stroke="#000" points="92.75 -1271.25 92.75 -1293.75 181.25 -1293.75 181.25 -1271.25 92.75 -1271.25"/><text x="96.12" y="-1277.45" font-family="Times,serif" font-size="14" text-anchor="start">bind_password</text><polygon fill="none" stroke="#000" points="72.5 -1248.75 72.5 -1271.25 92.75 -1271.25 92.75 -1248.75 72.5 -1248.75"/><polygon fill="none" stroke="#000" points="92.75 -1248.75 92.75 -1271.25 181.25 -1271.25 181.25 -1248.75 92.75 -1248.75"/><text x="114.88" y="-1254.95" font-family="Times,serif" font-size="14" text-anchor="start">base_dn</text><polygon fill="none" stroke="#000" points="72.5 -1226.25 72.5 -1248.75 92.75 -1248.75 92.75 -1226.25 72.5 -1226.25"/><polygon fill="none" stroke="#000" points="92.75 -1226.25 92.75 -1248.75 181.25 -1248.75 181.25 -1226.25 92.75 -1226.25"/><text x="109.25" y="-1232.45" font-family="Times,serif" font-size="14" text-anchor="start">user_filter</text><polygon fill="none" stroke="#000" points="72.5 -1203.75 72.5 -1226.25 92.75 -1226.25 92.75 -1203.75 72.5 -1203.75"/><polygon fill="none" stroke="#000" points="92.75 -1203.75 92.75 -1226.25 181.25 -1226.25 181.25 -1203.75 92.75 -1203.75"/><text x="108.12" y="-1209.95" font-family="Times,serif" font-size="14" text-anchor="start">encryption</text><polygon fill="none" stroke="#000" points="72.5 -1181.25 72.5 -1203.75 92.75 -1203.75 92.75 -1181.25 72.5 -1181.25"/><polygon fill="none" stroke="#000" points="92.75 -1181.25 92.75 -1203.75 181.25 -1203.75 181.25 -1181.25 92.75 -1181.25"/><text x="96.5" y="-1187.45" font-family="Times,serif" font-size="14" text-anchor="start">skip_tls_verify</text><polygon fill="none" stroke="#000" points="72.5 -1158.75 72.5 -1181.25 92.75 -1181.25 92.75 -1158.75 72.5 -1158.75"/><polygon fill="none" stroke="#000" points="92.75 -1158.75 92.75 -1181.25 181.25 -1181.25 181.25 -1158.75 92.75 -1158.75"/><text x="95.75" y="-1164.95" font-family="Times,serif" font-size="14" text-anchor="start">email_attribute</text><polygon fill="none" stroke="#000" points="72.5 -1136.25 72.5 -1158.75 92.75 -1158.75 92.75 -1136.25 72.5 -1136.25"/><polygon fill="none" stroke="#000" points="92.75 -1136.25 92.75 -1158.75 181.25 -1158.75 181.25 -1136.25 92.75 -1136.25"/><text x="96.12" y="-1142.45" font-family="Times,serif" font-size="14" text-anchor="start">name_attribute</text><polygon fill="none" stroke="#000" points="72.5 -1113.75 72.5 -1136.25 92.75 -1136.25 92.75 -1113.75 72.5 -1113.75"/><polygon fill="none" stroke="#000" points="92.75 -1113.75 92.75 -1136.25 181.25 -1136.25 181.25 -1113.75 92.75 -1113.75"/><text x="109.25" y="-1119.95" font-family="Times,serif" font-size="14" text-anchor="start">created_at</text><polygon fill="none" stroke="#000" points="72.5 -1091.25 72.5 -1113.75 92.75 -1113.75 92.75 -1091.25 72.5 -1091.25"/><polygon fill="none" stroke="#000" points="92.75 -1091.25 92.75 -1113.75 181.25 -1113.75 181.25 -1091.25 92.75 -1091.25"/><text x="107.38" y="-1097.45" font-family="Times,serif" font-size="14" text-anchor="start">updated_at</text></g><g id="node7" class="node"><title>notifications</title><polygon fill="none" stroke="#000" points="561.62 -2314 561.62 -2336.5 647.12 -2336.5 647.12 -2314 561.62 -2314"/><text x="568.75" y="-2321.2" font-family="Times,serif" font-size="14" font-weight="bold" text-anchor="start">notifications</text><polygon fill="none" stroke="#000" points="561.62 -2289.25 561.62 -2314 581.88 -2314 581.88 -2289.25 561.62 -2289.25"/><text x="564.62" y="-2297.7" font-family="Times,serif" font-size="14" text-anchor="start">🔑</text><polygon fill="none" stroke="#000" points="581.88 -2289.25 581.88 -2314 647.12 -2314 647.12 -2289.25 581.88 -2289.25"/><text x="609.25" y="-2296.57" font-family="Times,serif" font-size="14" text-anchor="start">id</text><polygon fill="none" stroke="#000" points="561.62 -2266.75 561.62 -2289.25 581.88 -2289.25 581.88 -2266.75 561.62 -2266.75"/><polygon fill="none" stroke="#000" points="581.88 -2266.75 581.88 -2289.25 647.12 -2289.25 647.12 -2266.75 581.88 -2266.75"/><text x="586.75" y="-2272.95" font-family="Times,serif" font-size="14" text-anchor="start">created_at</text><polygon fill="none" stroke="#000" points="561.62 -2244.25 561.62 -2266.75 581.88 -2266.75 581.88 -2244.25 561.62 -2244.25"/><polygon fill="none" stroke="#000" points="581.88 -2244.25 581.88 -2266.75 647.12 -2266.75 647.12 -2244.25 581.88 -2244.25"/><text x="584.88" y="-2250.45" font-family="Times,serif" font-size="14" text-anchor="start">updated_at</text><polygon fill="none" stroke="#000" points="561.62 -2221.75 561.62 -2244.25 581.88 -2244.25 581.88 -2221.75 561.62 -2221.75"/><polygon fill="none" stroke="#000" points="581.88 -2221.75 581.88 -2244.25 647.12 -2244.25 647.12 -2221.75 581.88 -2221.75"/><text x="590.88" y="-2227.95" font-family="Times,serif" font-size="14" text-anchor="start">recipient</text><polygon fill="none" stroke="#000" points="561.62 -2199.25 561.62 -2221.75 581.88 -2221.75 581.88 -2199.25 561.62 -2199.25"/><polygon fill="none" stroke="#000" points="581.88 -2199.25 581.88 -2221.75 647.12 -2221.75 647.12 -2199.25 581.88 -2199.25"/><text x="594.62" y="-2205.45" font-family="Times,serif" font-size="14" text-anchor="start">content</text></g><g id="node8" class="node"><title>oauth_credential</title><polygon fill="none" stroke="#000" points="75.12 -2405.25 75.12 -2427.75 178.62 -2427.75 178.62 -2405.25 75.12 -2405.25"/><text x="78.12" y="-2412.45" font-family="Times,serif" font-size="14" font-weight="bold" text-anchor="start">oauth_credential</text><polygon fill="none" stroke="#000" points="75.12 -2380.5 75.12 -2405.25 99.88 -2405.25 99.88 -2380.5 75.12 -2380.5"/><text x="80.38" y="-2388.95" font-family="Times,serif" font-size="14" text-anchor="start">🔑</text><polygon fill="none" stroke="#000" points="99.88 -2380.5 99.88 -2405.25 178.62 -2405.25 178.62 -2380.5 99.88 -2380.5"/><text x="134" y="-2387.82" font-family="Times,serif" font-size="14" text-anchor="start">id</text><polygon fill="none" stroke="#000" points="75.12 -2358 75.12 -2380.5 99.88 -2380.5 99.88 -2358 75.12 -2358"/><polygon fill="none" stroke="#000" points="99.88 -2358 99.88 -2380.5 178.62 -2380.5 178.62 -2358 99.88 -2358"/><text x="116.38" y="-2364.2" font-family="Times,serif" font-size="14" text-anchor="start">provider</text><polygon fill="none" stroke="#000" points="75.12 -2335.5 75.12 -2358 99.88 -2358 99.88 -2335.5 75.12 -2335.5"/><polygon fill="none" stroke="#000" points="99.88 -2335.5 99.88 -2358 178.62 -2358 178.62 -2335.5 99.88 -2335.5"/><text x="115.62" y="-2341.7" font-family="Times,serif" font-size="14" text-anchor="start">client_id</text><polygon fill="none" stroke="#000" points="75.12 -2313 75.12 -2335.5 99.88 -2335.5 99.88 -2313 75.12 -2313"/><polygon fill="none" stroke="#000" points="99.88 -2313 99.88 -2335.5 178.62 -2335.5 178.62 -2313 99.88 -2313"/><text x="105.12" y="-2319.2" font-family="Times,serif" font-size="14" text-anchor="start">client_secret</text><polygon fill="none" stroke="#000" points="75.12 -2290.5 75.12 -2313 99.88 -2313 99.88 -2290.5 75.12 -2290.5"/><polygon fill="none" stroke="#000" points="99.88 -2290.5 99.88 -2313 178.62 -2313 178.62 -2290.5 99.88 -2290.5"/><text x="111.5" y="-2296.7" font-family="Times,serif" font-size="14" text-anchor="start">created_at</text><polygon fill="none" stroke="#000" points="75.12 -2268 75.12 -2290.5 99.88 -2290.5 99.88 -2268 75.12 -2268"/><polygon fill="none" stroke="#000" points="99.88 -2268 99.88 -2290.5 178.62 -2290.5 178.62 -2268 99.88 -2268"/><text x="109.62" y="-2274.2" font-family="Times,serif" font-size="14" text-anchor="start">updated_at</text></g><g id="node9" class="node"><title>page_sections</title><polygon fill="none" stroke="#000" points="83.75 -1616.75 83.75 -1639.25 170 -1639.25 170 -1616.75 83.75 -1616.75"/><text x="87.5" y="-1623.95" font-family="Times,serif" font-size="14" font-weight="bold" text-anchor="start">page_sections</text><polygon fill="none" stroke="#000" points="83.75 -1592 83.75 -1616.75 104 -1616.75 104 -1592 83.75 -1592"/><text x="86.75" y="-1600.45" font-family="Times,serif" font-size="14" text-anchor="start">🔑</text><polygon fill="none" stroke="#000" points="104 -1592 104 -1616.75 170 -1616.75 170 -1592 104 -1592"/><text x="131.75" y="-1599.33" font-family="Times,serif" font-size="14" text-anchor="start">id</text><polygon fill="none" stroke="#000" points="83.75 -1569.5 83.75 -1592 104 -1592 104 -1569.5 83.75 -1569.5"/><polygon fill="none" stroke="#000" points="104 -1569.5 104 -1592 170 -1592 170 -1569.5 104 -1569.5"/><text x="115.62" y="-1575.7" font-family="Times,serif" font-size="14" text-anchor="start">page_id</text><polygon fill="none" stroke="#000" points="83.75 -1547 83.75 -1569.5 104 -1569.5 104 -1547 83.75 -1547"/><polygon fill="none" stroke="#000" points="104 -1547 104 -1569.5 170 -1569.5 170 -1547 104 -1547"/><text x="126.5" y="-1553.2" font-family="Times,serif" font-size="14" text-anchor="start">title</text><polygon fill="none" stroke="#000" points="83.75 -1524.5 83.75 -1547 104 -1547 104 -1524.5 83.75 -1524.5"/><polygon fill="none" stroke="#000" points="104 -1524.5 104 -1547 170 -1547 170 -1524.5 104 -1524.5"/><text x="117.12" y="-1530.7" font-family="Times,serif" font-size="14" text-anchor="start">content</text><polygon fill="none" stroke="#000" points="83.75 -1502 83.75 -1524.5 104 -1524.5 104 -1502 83.75 -1502"/><polygon fill="none" stroke="#000" points="104 -1502 104 -1524.5 170 -1524.5 170 -1502 104 -1502"/><text x="115.25" y="-1508.2" font-family="Times,serif" font-size="14" text-anchor="start">position</text><polygon fill="none" stroke="#000" points="83.75 -1479.5 83.75 -1502 104 -1502 104 -1479.5 83.75 -1479.5"/><polygon fill="none" stroke="#000" points="104 -1479.5 104 -1502 170 -1502 170 -1479.5 104 -1479.5"/><text x="109.25" y="-1485.7" font-family="Times,serif" font-size="14" text-anchor="start">created_at</text><polygon fill="none" stroke="#000" points="83.75 -1457 83.75 -1479.5 104 -1479.5 104 -1457 83.75 -1457"/><polygon fill="none" stroke="#000" points="104 -1457 104 -1479.5 170 -1479.5 170 -1457 104 -1457"/><text x="107.38" y="-1463.2" font-family="Times,serif" font-size="14" text-anchor="start">updated_at</text><polygon fill="none" stroke="#000" points="83.75 -1434.5 83.75 -1457 104 -1457 104 -1434.5 83.75 -1434.5"/><polygon fill="none" stroke="#000" points="104 -1434.5 104 -1457 170 -1457 170 -1434.5 104 -1434.5"/><text x="107" y="-1440.7" font-family="Times,serif" font-size="14" text-anchor="start">attachment</text></g><g id="node10" class="node"><title>pages</title><polygon fill="none" stroke="#000" points="335.25 -1593.5 335.25 -1616 446.25 -1616 446.25 -1593.5 335.25 -1593.5"/><text x="374.62" y="-1600.7" font-family="Times,serif" font-size="14" font-weight="bold" text-anchor="start">pages</text><polygon fill="none" stroke="#000" points="335.25 -1568.75 335.25 -1593.5 355.5 -1593.5 355.5 -1568.75 335.25 -1568.75"/><text x="338.25" y="-1577.2" font-family="Times,serif" font-size="14" text-anchor="start">🔑</text><polygon fill="none" stroke="#000" points="355.5 -1568.75 355.5 -1593.5 446.25 -1593.5 446.25 -1568.75 355.5 -1568.75"/><text x="395.62" y="-1576.08" font-family="Times,serif" font-size="14" text-anchor="start">id</text><polygon fill="none" stroke="#000" points="335.25 -1546.25 335.25 -1568.75 355.5 -1568.75 355.5 -1546.25 335.25 -1546.25"/><polygon fill="none" stroke="#000" points="355.5 -1546.25 355.5 -1568.75 446.25 -1568.75 446.25 -1546.25 355.5 -1546.25"/><text x="375" y="-1552.45" font-family="Times,serif" font-size="14" text-anchor="start">author_id</text><polygon fill="none" stroke="#000" points="335.25 -1523.75 335.25 -1546.25 355.5 -1546.25 355.5 -1523.75 335.25 -1523.75"/><polygon fill="none" stroke="#000" points="355.5 -1523.75 355.5 -1546.25 446.25 -1546.25 446.25 -1523.75 355.5 -1523.75"/><text x="390.38" y="-1529.95" font-family="Times,serif" font-size="14" text-anchor="start">title</text><polygon fill="none" stroke="#000" points="335.25 -1501.25 335.25 -1523.75 355.5 -1523.75 355.5 -1501.25 335.25 -1501.25"/><polygon fill="none" stroke="#000" points="355.5 -1501.25 355.5 -1523.75 446.25 -1523.75 446.25 -1501.25 355.5 -1501.25"/><text x="381" y="-1507.45" font-family="Times,serif" font-size="14" text-anchor="start">content</text><polygon fill="none" stroke="#000" points="335.25 -1478.75 335.25 -1501.25 355.5 -1501.25 355.5 -1478.75 335.25 -1478.75"/><polygon fill="none" stroke="#000" points="355.5 -1478.75 355.5 -1501.25 446.25 -1501.25 446.25 -1478.75 355.5 -1478.75"/><text x="373.12" y="-1484.95" font-family="Times,serif" font-size="14" text-anchor="start">created_at</text><polygon fill="none" stroke="#000" points="335.25 -1456.25 335.25 -1478.75 355.5 -1478.75 355.5 -1456.25 335.25 -1456.25"/><polygon fill="none" stroke="#000" points="355.5 -1456.25 355.5 -1478.75 446.25 -1478.75 446.25 -1456.25 355.5 -1456.25"/><text x="371.25" y="-1462.45" font-family="Times,serif" font-size="14" text-anchor="start">updated_at</text><polygon fill="none" stroke="#000" points="335.25 -1433.75 335.25 -1456.25 355.5 -1456.25 355.5 -1433.75 335.25 -1433.75"/><polygon fill="none" stroke="#000" points="355.5 -1433.75 355.5 -1456.25 446.25 -1456.25 446.25 -1433.75 355.5 -1433.75"/><text x="358.5" y="-1439.95" font-family="Times,serif" font-size="14" text-anchor="start">code_source_id</text></g><g id="edge1" class="edge"><title>page_sections:e-&gt;pages:w</title><path fill="none" stroke="#000" d="M171,-1580.75C239.59,-1580.75 259.55,-1581.09 322.82,-1581.12"/><polygon fill="#000" stroke="#000" points="322.74 -1584.62 332.74 -1581.12 322.74 -1577.62 322.74 -1584.62"/></g><g id="node25" class="node"><title>users</title><polygon fill="none" stroke="#000" points="535.75 -1652.25 535.75 -1674.75 673 -1674.75 673 -1652.25 535.75 -1652.25"/><text x="589.38" y="-1659.45" font-family="Times,serif" font-size="14" font-weight="bold" text-anchor="start">users</text><polygon fill="none" stroke="#000" points="535.75 -1627.5 535.75 -1652.25 556 -1652.25 556 -1627.5 535.75 -1627.5"/><text x="538.75" y="-1635.95" font-family="Times,serif" font-size="14" text-anchor="start">🔑</text><polygon fill="none" stroke="#000" points="556 -1627.5 556 -1652.25 673 -1652.25 673 -1627.5 556 -1627.5"/><text x="609.25" y="-1634.83" font-family="Times,serif" font-size="14" text-anchor="start">id</text><polygon fill="none" stroke="#000" points="535.75 -1605 535.75 -1627.5 556 -1627.5 556 -1605 535.75 -1605"/><polygon fill="none" stroke="#000" points="556 -1605 556 -1627.5 673 -1627.5 673 -1605 556 -1605"/><text x="599.12" y="-1611.2" font-family="Times,serif" font-size="14" text-anchor="start">email</text><polygon fill="none" stroke="#000" points="535.75 -1582.5 535.75 -1605 556 -1605 556 -1582.5 535.75 -1582.5"/><polygon fill="none" stroke="#000" points="556 -1582.5 556 -1605 673 -1605 673 -1582.5 556 -1582.5"/><text x="589.38" y="-1588.7" font-family="Times,serif" font-size="14" text-anchor="start">is_admin</text><polygon fill="none" stroke="#000" points="535.75 -1560 535.75 -1582.5 556 -1582.5 556 -1560 535.75 -1560"/><polygon fill="none" stroke="#000" points="556 -1560 556 -1582.5 673 -1582.5 673 -1560 556 -1560"/><text x="586.75" y="-1566.2" font-family="Times,serif" font-size="14" text-anchor="start">created_at</text><polygon fill="none" stroke="#000" points="535.75 -1537.5 535.75 -1560 556 -1560 556 -1537.5 535.75 -1537.5"/><polygon fill="none" stroke="#000" points="556 -1537.5 556 -1560 673 -1560 673 -1537.5 556 -1537.5"/><text x="584.88" y="-1543.7" font-family="Times,serif" font-size="14" text-anchor="start">updated_at</text><polygon fill="none" stroke="#000" points="535.75 -1515 535.75 -1537.5 556 -1537.5 556 -1515 535.75 -1515"/><polygon fill="none" stroke="#000" points="556 -1515 556 -1537.5 673 -1537.5 673 -1515 556 -1515"/><text x="584.5" y="-1521.2" font-family="Times,serif" font-size="14" text-anchor="start">auth_token</text><polygon fill="none" stroke="#000" points="535.75 -1492.5 535.75 -1515 556 -1515 556 -1492.5 535.75 -1492.5"/><polygon fill="none" stroke="#000" points="556 -1492.5 556 -1515 673 -1515 673 -1492.5 556 -1492.5"/><text x="598.38" y="-1498.7" font-family="Times,serif" font-size="14" text-anchor="start">active</text><polygon fill="none" stroke="#000" points="535.75 -1470 535.75 -1492.5 556 -1492.5 556 -1470 535.75 -1470"/><polygon fill="none" stroke="#000" points="556 -1470 556 -1492.5 673 -1492.5 673 -1470 556 -1470"/><text x="559" y="-1476.2" font-family="Times,serif" font-size="14" text-anchor="start">password_encrypted</text><polygon fill="none" stroke="#000" points="535.75 -1447.5 535.75 -1470 556 -1470 556 -1447.5 535.75 -1447.5"/><polygon fill="none" stroke="#000" points="556 -1447.5 556 -1470 673 -1470 673 -1447.5 556 -1447.5"/><text x="598" y="-1453.7" font-family="Times,serif" font-size="14" text-anchor="start">avatar</text><polygon fill="none" stroke="#000" points="535.75 -1425 535.75 -1447.5 556 -1447.5 556 -1425 535.75 -1425"/><polygon fill="none" stroke="#000" points="556 -1425 556 -1447.5 673 -1447.5 673 -1425 556 -1425"/><text x="599.5" y="-1431.2" font-family="Times,serif" font-size="14" text-anchor="start">name</text></g><g id="edge13" class="edge"><title>pages:e-&gt;users:w</title><path fill="none" stroke="#000" d="M447.25,-1557.5C496.49,-1557.5 483.91,-1627.51 523.49,-1638.45"/><polygon fill="#000" stroke="#000" points="522.89 -1641.9 533.25 -1639.68 523.77 -1634.95 522.89 -1641.9"/></g><g id="node11" class="node"><title>password_reset</title><polygon fill="none" stroke="#000" points="343.12 -1384.75 343.12 -1407.25 438.38 -1407.25 438.38 -1384.75 343.12 -1384.75"/><text x="346.12" y="-1391.95" font-family="Times,serif" font-size="14" font-weight="bold" text-anchor="start">password_reset</text><polygon fill="none" stroke="#000" points="343.12 -1360 343.12 -1384.75 370.12 -1384.75 370.12 -1360 343.12 -1360"/><text x="349.5" y="-1368.45" font-family="Times,serif" font-size="14" text-anchor="start">🔑</text><polygon fill="none" stroke="#000" points="370.12 -1360 370.12 -1384.75 438.38 -1384.75 438.38 -1360 370.12 -1360"/><text x="399" y="-1367.33" font-family="Times,serif" font-size="14" text-anchor="start">id</text><polygon fill="none" stroke="#000" points="343.12 -1337.5 343.12 -1360 370.12 -1360 370.12 -1337.5 343.12 -1337.5"/><polygon fill="none" stroke="#000" points="370.12 -1337.5 370.12 -1360 438.38 -1360 438.38 -1337.5 370.12 -1337.5"/><text x="384.38" y="-1343.7" font-family="Times,serif" font-size="14" text-anchor="start">user_id</text><polygon fill="none" stroke="#000" points="343.12 -1315 343.12 -1337.5 370.12 -1337.5 370.12 -1315 343.12 -1315"/><polygon fill="none" stroke="#000" points="370.12 -1315 370.12 -1337.5 438.38 -1337.5 438.38 -1315 370.12 -1315"/><text x="391.5" y="-1321.2" font-family="Times,serif" font-size="14" text-anchor="start">code</text><polygon fill="none" stroke="#000" points="343.12 -1292.5 343.12 -1315 370.12 -1315 370.12 -1292.5 343.12 -1292.5"/><polygon fill="none" stroke="#000" points="370.12 -1292.5 370.12 -1315 438.38 -1315 438.38 -1292.5 370.12 -1292.5"/><text x="376.5" y="-1298.7" font-family="Times,serif" font-size="14" text-anchor="start">created_at</text></g><g id="edge11" class="edge"><title>password_reset:e-&gt;users:w</title><path fill="none" stroke="#000" d="M439.38,-1348.75C478.99,-1348.75 475.92,-1384.56 491.75,-1420.88 509.94,-1462.61 489.18,-1612.27 524.01,-1636.54"/><polygon fill="#000" stroke="#000" points="522.72 -1639.8 533.3 -1639.43 524.79 -1633.12 522.72 -1639.8"/></g><g id="node12" class="node"><title>provided_repositories</title><polygon fill="none" stroke="#000" points="60.88 -602.75 60.88 -625.25 192.88 -625.25 192.88 -602.75 60.88 -602.75"/><text x="63.88" y="-609.95" font-family="Times,serif" font-size="14" font-weight="bold" text-anchor="start">provided_repositories</text><polygon fill="none" stroke="#000" points="60.88 -578 60.88 -602.75 96.12 -602.75 96.12 -578 60.88 -578"/><text x="71.38" y="-586.45" font-family="Times,serif" font-size="14" text-anchor="start">🔑</text><polygon fill="none" stroke="#000" points="96.12 -578 96.12 -602.75 192.88 -602.75 192.88 -578 96.12 -578"/><text x="139.25" y="-585.33" font-family="Times,serif" font-size="14" text-anchor="start">id</text><polygon fill="none" stroke="#000" points="60.88 -555.5 60.88 -578 96.12 -578 96.12 -555.5 60.88 -555.5"/><polygon fill="none" stroke="#000" points="96.12 -555.5 96.12 -578 192.88 -578 192.88 -555.5 96.12 -555.5"/><text x="106.62" y="-561.7" font-family="Times,serif" font-size="14" text-anchor="start">integration_id</text><polygon fill="none" stroke="#000" points="60.88 -533 60.88 -555.5 96.12 -555.5 96.12 -533 60.88 -533"/><polygon fill="none" stroke="#000" points="96.12 -533 96.12 -555.5 192.88 -555.5 192.88 -533 96.12 -533"/><text x="117.12" y="-539.2" font-family="Times,serif" font-size="14" text-anchor="start">vendor_id</text><polygon fill="none" stroke="#000" points="60.88 -510.5 60.88 -533 96.12 -533 96.12 -510.5 60.88 -510.5"/><polygon fill="none" stroke="#000" points="96.12 -510.5 96.12 -533 192.88 -533 192.88 -510.5 96.12 -510.5"/><text x="129.5" y="-516.7" font-family="Times,serif" font-size="14" text-anchor="start">name</text><polygon fill="none" stroke="#000" points="60.88 -488 60.88 -510.5 96.12 -510.5 96.12 -488 60.88 -488"/><polygon fill="none" stroke="#000" points="96.12 -488 96.12 -510.5 192.88 -510.5 192.88 -488 96.12 -488"/><text x="126.5" y="-494.2" font-family="Times,serif" font-size="14" text-anchor="start">git_url</text><polygon fill="none" stroke="#000" points="60.88 -465.5 60.88 -488 96.12 -488 96.12 -465.5 60.88 -465.5"/><polygon fill="none" stroke="#000" points="96.12 -465.5 96.12 -488 192.88 -488 192.88 -465.5 96.12 -465.5"/><text x="128.38" y="-471.7" font-family="Times,serif" font-size="14" text-anchor="start">active</text><polygon fill="none" stroke="#000" points="60.88 -443 60.88 -465.5 96.12 -465.5 96.12 -443 60.88 -443"/><polygon fill="none" stroke="#000" points="96.12 -443 96.12 -465.5 192.88 -465.5 192.88 -443 96.12 -443"/><text x="116.75" y="-449.2" font-family="Times,serif" font-size="14" text-anchor="start">created_at</text><polygon fill="none" stroke="#000" points="60.88 -420.5 60.88 -443 96.12 -443 96.12 -420.5 60.88 -420.5"/><polygon fill="none" stroke="#000" points="96.12 -420.5 96.12 -443 192.88 -443 192.88 -420.5 96.12 -420.5"/><text x="114.88" y="-426.7" font-family="Times,serif" font-size="14" text-anchor="start">updated_at</text></g><g id="edge14" class="edge"><title>provided_repositories:e-&gt;integrations:w</title><path fill="none" stroke="#000" d="M193.88,-566.75C254.37,-566.75 272.23,-567.52 327.56,-567.62"/><polygon fill="#000" stroke="#000" points="327.23 -571.12 337.24 -567.62 327.24 -564.12 327.23 -571.12"/></g><g id="node13" class="node"><title>read_notifications</title><polygon fill="none" stroke="#000" points="335.62 -2360 335.62 -2382.5 445.88 -2382.5 445.88 -2360 335.62 -2360"/><text x="338.62" y="-2367.2" font-family="Times,serif" font-size="14" font-weight="bold" text-anchor="start">read_notifications</text><polygon fill="none" stroke="#000" points="335.62 -2335.25 335.62 -2360 358.12 -2360 358.12 -2335.25 335.62 -2335.25"/><text x="339.75" y="-2343.7" font-family="Times,serif" font-size="14" text-anchor="start">🔑</text><polygon fill="none" stroke="#000" points="358.12 -2335.25 358.12 -2360 445.88 -2360 445.88 -2335.25 358.12 -2335.25"/><text x="396.75" y="-2342.57" font-family="Times,serif" font-size="14" text-anchor="start">id</text><polygon fill="none" stroke="#000" points="335.62 -2312.75 335.62 -2335.25 358.12 -2335.25 358.12 -2312.75 335.62 -2312.75"/><polygon fill="none" stroke="#000" points="358.12 -2312.75 358.12 -2335.25 445.88 -2335.25 445.88 -2312.75 358.12 -2312.75"/><text x="382.12" y="-2318.95" font-family="Times,serif" font-size="14" text-anchor="start">user_id</text><polygon fill="none" stroke="#000" points="335.62 -2290.25 335.62 -2312.75 358.12 -2312.75 358.12 -2290.25 335.62 -2290.25"/><polygon fill="none" stroke="#000" points="358.12 -2290.25 358.12 -2312.75 445.88 -2312.75 445.88 -2290.25 358.12 -2290.25"/><text x="362.25" y="-2296.45" font-family="Times,serif" font-size="14" text-anchor="start">notification_id</text><polygon fill="none" stroke="#000" points="335.62 -2267.75 335.62 -2290.25 358.12 -2290.25 358.12 -2267.75 335.62 -2267.75"/><polygon fill="none" stroke="#000" points="358.12 -2267.75 358.12 -2290.25 445.88 -2290.25 445.88 -2267.75 358.12 -2267.75"/><text x="374.25" y="-2273.95" font-family="Times,serif" font-size="14" text-anchor="start">created_at</text><polygon fill="none" stroke="#000" points="335.62 -2245.25 335.62 -2267.75 358.12 -2267.75 358.12 -2245.25 335.62 -2245.25"/><polygon fill="none" stroke="#000" points="358.12 -2245.25 358.12 -2267.75 445.88 -2267.75 445.88 -2245.25 358.12 -2245.25"/><text x="372.38" y="-2251.45" font-family="Times,serif" font-size="14" text-anchor="start">updated_at</text></g><g id="edge2" class="edge"><title>read_notifications:e-&gt;notifications:w</title><path fill="none" stroke="#000" d="M446.88,-2301.5C493.38,-2301.5 507.8,-2301.61 549.17,-2301.62"/><polygon fill="#000" stroke="#000" points="549.11 -2305.12 559.11 -2301.62 549.11 -2298.12 549.11 -2305.12"/></g><g id="edge3" class="edge"><title>read_notifications:e-&gt;users:w</title><path fill="none" stroke="#000" d="M446.88,-2324C492.42,-2324 479.91,-2275.85 491.75,-2231.88 507.92,-2171.8 473.16,-1698.23 524.53,-1644.78"/><polygon fill="#000" stroke="#000" points="525.89 -1648.01 533.39 -1640.53 522.86 -1641.7 525.89 -1648.01"/></g><g id="node14" class="node"><title>refresh_tokens</title><polygon fill="none" stroke="#000" points="345 -1244 345 -1266.5 436.5 -1266.5 436.5 -1244 345 -1244"/><text x="348" y="-1251.2" font-family="Times,serif" font-size="14" font-weight="bold" text-anchor="start">refresh_tokens</text><polygon fill="none" stroke="#000" points="345 -1219.25 345 -1244 370.12 -1244 370.12 -1219.25 345 -1219.25"/><text x="350.44" y="-1227.7" font-family="Times,serif" font-size="14" text-anchor="start">🔑</text><polygon fill="none" stroke="#000" points="370.12 -1219.25 370.12 -1244 436.5 -1244 436.5 -1219.25 370.12 -1219.25"/><text x="398.06" y="-1226.58" font-family="Times,serif" font-size="14" text-anchor="start">id</text><polygon fill="none" stroke="#000" points="345 -1196.75 345 -1219.25 370.12 -1219.25 370.12 -1196.75 345 -1196.75"/><polygon fill="none" stroke="#000" points="370.12 -1196.75 370.12 -1219.25 436.5 -1219.25 436.5 -1196.75 370.12 -1196.75"/><text x="383.44" y="-1202.95" font-family="Times,serif" font-size="14" text-anchor="start">user_id</text><polygon fill="none" stroke="#000" points="345 -1174.25 345 -1196.75 370.12 -1196.75 370.12 -1174.25 345 -1174.25"/><polygon fill="none" stroke="#000" points="370.12 -1174.25 370.12 -1196.75 436.5 -1196.75 436.5 -1174.25 370.12 -1174.25"/><text x="388.31" y="-1180.45" font-family="Times,serif" font-size="14" text-anchor="start">token</text><polygon fill="none" stroke="#000" points="345 -1151.75 345 -1174.25 370.12 -1174.25 370.12 -1151.75 345 -1151.75"/><polygon fill="none" stroke="#000" points="370.12 -1151.75 370.12 -1174.25 436.5 -1174.25 436.5 -1151.75 370.12 -1151.75"/><text x="375.56" y="-1157.95" font-family="Times,serif" font-size="14" text-anchor="start">expires_at</text><polygon fill="none" stroke="#000" points="345 -1129.25 345 -1151.75 370.12 -1151.75 370.12 -1129.25 345 -1129.25"/><polygon fill="none" stroke="#000" points="370.12 -1129.25 370.12 -1151.75 436.5 -1151.75 436.5 -1129.25 370.12 -1129.25"/><text x="375.56" y="-1135.45" font-family="Times,serif" font-size="14" text-anchor="start">created_at</text></g><g id="edge6" class="edge"><title>refresh_tokens:e-&gt;users:w</title><path fill="none" stroke="#000" d="M437.5,-1208C477.52,-1208 476.8,-1242.75 491.75,-1279.88 520.31,-1350.82 460.8,-1611.45 523.59,-1637.73"/><polygon fill="#000" stroke="#000" points="522.78 -1641.14 533.26 -1639.59 524.1 -1634.27 522.78 -1641.14"/></g><g id="node15" class="node"><title>registration_token</title><polygon fill="none" stroke="#000" points="70.62 -2545.75 70.62 -2568.25 183.12 -2568.25 183.12 -2545.75 70.62 -2545.75"/><text x="73.62" y="-2552.95" font-family="Times,serif" font-size="14" font-weight="bold" text-anchor="start">registration_token</text><polygon fill="none" stroke="#000" points="70.62 -2521 70.62 -2545.75 104.38 -2545.75 104.38 -2521 70.62 -2521"/><text x="80.38" y="-2529.45" font-family="Times,serif" font-size="14" text-anchor="start">🔑</text><polygon fill="none" stroke="#000" points="104.38 -2521 104.38 -2545.75 183.12 -2545.75 183.12 -2521 104.38 -2521"/><text x="138.5" y="-2528.32" font-family="Times,serif" font-size="14" text-anchor="start">id</text><polygon fill="none" stroke="#000" points="70.62 -2498.5 70.62 -2521 104.38 -2521 104.38 -2498.5 70.62 -2498.5"/><polygon fill="none" stroke="#000" points="104.38 -2498.5 104.38 -2521 183.12 -2521 183.12 -2498.5 104.38 -2498.5"/><text x="128.75" y="-2504.7" font-family="Times,serif" font-size="14" text-anchor="start">token</text><polygon fill="none" stroke="#000" points="70.62 -2476 70.62 -2498.5 104.38 -2498.5 104.38 -2476 70.62 -2476"/><polygon fill="none" stroke="#000" points="104.38 -2476 104.38 -2498.5 183.12 -2498.5 183.12 -2476 104.38 -2476"/><text x="116" y="-2482.2" font-family="Times,serif" font-size="14" text-anchor="start">created_at</text><polygon fill="none" stroke="#000" points="70.62 -2453.5 70.62 -2476 104.38 -2476 104.38 -2453.5 70.62 -2453.5"/><polygon fill="none" stroke="#000" points="104.38 -2453.5 104.38 -2476 183.12 -2476 183.12 -2453.5 104.38 -2453.5"/><text x="114.12" y="-2459.7" font-family="Times,serif" font-size="14" text-anchor="start">updated_at</text></g><g id="node16" class="node"><title>repositories</title><polygon fill="none" stroke="#000" points="90.12 -2664.5 90.12 -2687 163.62 -2687 163.62 -2664.5 90.12 -2664.5"/><text x="93.12" y="-2671.7" font-family="Times,serif" font-size="14" font-weight="bold" text-anchor="start">repositories</text><polygon fill="none" stroke="#000" points="90.12 -2639.75 90.12 -2664.5 116 -2664.5 116 -2639.75 90.12 -2639.75"/><text x="95.94" y="-2648.2" font-family="Times,serif" font-size="14" text-anchor="start">🔑</text><polygon fill="none" stroke="#000" points="116 -2639.75 116 -2664.5 163.62 -2664.5 163.62 -2639.75 116 -2639.75"/><text x="134.56" y="-2647.07" font-family="Times,serif" font-size="14" text-anchor="start">id</text><polygon fill="none" stroke="#000" points="90.12 -2617.25 90.12 -2639.75 116 -2639.75 116 -2617.25 90.12 -2617.25"/><polygon fill="none" stroke="#000" points="116 -2617.25 116 -2639.75 163.62 -2639.75 163.62 -2617.25 116 -2617.25"/><text x="124.81" y="-2623.45" font-family="Times,serif" font-size="14" text-anchor="start">name</text><polygon fill="none" stroke="#000" points="90.12 -2594.75 90.12 -2617.25 116 -2617.25 116 -2594.75 90.12 -2594.75"/><polygon fill="none" stroke="#000" points="116 -2594.75 116 -2617.25 163.62 -2617.25 163.62 -2594.75 116 -2594.75"/><text x="121.81" y="-2600.95" font-family="Times,serif" font-size="14" text-anchor="start">git_url</text></g><g id="node17" class="node"><title>server_setting</title><polygon fill="none" stroke="#000" points="8 -2850.25 8 -2872.75 245.75 -2872.75 245.75 -2850.25 8 -2850.25"/><text x="86.38" y="-2857.45" font-family="Times,serif" font-size="14" font-weight="bold" text-anchor="start">server_setting</text><polygon fill="none" stroke="#000" points="8 -2825.5 8 -2850.25 28.25 -2850.25 28.25 -2825.5 8 -2825.5"/><text x="11" y="-2833.95" font-family="Times,serif" font-size="14" text-anchor="start">🔑</text><polygon fill="none" stroke="#000" points="28.25 -2825.5 28.25 -2850.25 245.75 -2850.25 245.75 -2825.5 28.25 -2825.5"/><text x="131.75" y="-2832.82" font-family="Times,serif" font-size="14" text-anchor="start">id</text><polygon fill="none" stroke="#000" points="8 -2803 8 -2825.5 28.25 -2825.5 28.25 -2803 8 -2803"/><polygon fill="none" stroke="#000" points="28.25 -2803 28.25 -2825.5 245.75 -2825.5 245.75 -2803 28.25 -2803"/><text x="31.62" y="-2809.2" font-family="Times,serif" font-size="14" text-anchor="start">security_allowed_register_domain_list</text><polygon fill="none" stroke="#000" points="8 -2780.5 8 -2803 28.25 -2803 28.25 -2780.5 8 -2780.5"/><polygon fill="none" stroke="#000" points="28.25 -2780.5 28.25 -2803 245.75 -2803 245.75 -2780.5 28.25 -2780.5"/><text x="31.25" y="-2786.7" font-family="Times,serif" font-size="14" text-anchor="start">security_disable_client_side_telemetry</text><polygon fill="none" stroke="#000" points="8 -2758 8 -2780.5 28.25 -2780.5 28.25 -2758 8 -2758"/><polygon fill="none" stroke="#000" points="28.25 -2758 28.25 -2780.5 245.75 -2780.5 245.75 -2758 28.25 -2758"/><text x="78.88" y="-2764.2" font-family="Times,serif" font-size="14" text-anchor="start">network_external_url</text><polygon fill="none" stroke="#000" points="8 -2735.5 8 -2758 28.25 -2758 28.25 -2735.5 8 -2735.5"/><polygon fill="none" stroke="#000" points="28.25 -2735.5 28.25 -2758 245.75 -2758 245.75 -2735.5 28.25 -2735.5"/><text x="67.25" y="-2741.7" font-family="Times,serif" font-size="14" text-anchor="start">billing_enterprise_license</text><polygon fill="none" stroke="#000" points="8 -2713 8 -2735.5 28.25 -2735.5 28.25 -2713 8 -2713"/><polygon fill="none" stroke="#000" points="28.25 -2713 28.25 -2735.5 245.75 -2735.5 245.75 -2713 28.25 -2713"/><text x="47" y="-2719.2" font-family="Times,serif" font-size="14" text-anchor="start">security_disable_password_login</text></g><g id="node18" class="node"><title>source_id_read_access_policies</title><polygon fill="none" stroke="#000" points="297.75 -894 297.75 -916.5 483.75 -916.5 483.75 -894 297.75 -894"/><text x="300.75" y="-901.2" font-family="Times,serif" font-size="14" font-weight="bold" text-anchor="start">source_id_read_access_policies</text><polygon fill="none" stroke="#000" points="297.75 -869.25 297.75 -894 358.88 -894 358.88 -869.25 297.75 -869.25"/><text x="321.19" y="-877.7" font-family="Times,serif" font-size="14" text-anchor="start">🔑</text><polygon fill="none" stroke="#000" points="358.88 -869.25 358.88 -894 483.75 -894 483.75 -869.25 358.88 -869.25"/><text x="416.06" y="-876.58" font-family="Times,serif" font-size="14" text-anchor="start">id</text><polygon fill="none" stroke="#000" points="297.75 -846.75 297.75 -869.25 358.88 -869.25 358.88 -846.75 297.75 -846.75"/><polygon fill="none" stroke="#000" points="358.88 -846.75 358.88 -869.25 483.75 -869.25 483.75 -846.75 358.88 -846.75"/><text x="395.06" y="-852.95" font-family="Times,serif" font-size="14" text-anchor="start">source_id</text><polygon fill="none" stroke="#000" points="297.75 -824.25 297.75 -846.75 358.88 -846.75 358.88 -824.25 297.75 -824.25"/><polygon fill="none" stroke="#000" points="358.88 -824.25 358.88 -846.75 483.75 -846.75 483.75 -824.25 358.88 -824.25"/><text x="382.31" y="-830.45" font-family="Times,serif" font-size="14" text-anchor="start">user_group_id</text><polygon fill="none" stroke="#000" points="297.75 -801.75 297.75 -824.25 358.88 -824.25 358.88 -801.75 297.75 -801.75"/><polygon fill="none" stroke="#000" points="358.88 -801.75 358.88 -824.25 483.75 -824.25 483.75 -801.75 358.88 -801.75"/><text x="393.56" y="-807.95" font-family="Times,serif" font-size="14" text-anchor="start">created_at</text><polygon fill="none" stroke="#000" points="297.75 -779.25 297.75 -801.75 358.88 -801.75 358.88 -779.25 297.75 -779.25"/><polygon fill="none" stroke="#000" points="358.88 -779.25 358.88 -801.75 483.75 -801.75 483.75 -779.25 358.88 -779.25"/><text x="391.69" y="-785.45" font-family="Times,serif" font-size="14" text-anchor="start">updated_at</text></g><g id="node24" class="node"><title>user_groups</title><polygon fill="none" stroke="#000" points="561.62 -941.75 561.62 -964.25 647.12 -964.25 647.12 -941.75 561.62 -941.75"/><text x="568.75" y="-948.95" font-family="Times,serif" font-size="14" font-weight="bold" text-anchor="start">user_groups</text><polygon fill="none" stroke="#000" points="561.62 -917 561.62 -941.75 581.88 -941.75 581.88 -917 561.62 -917"/><text x="564.62" y="-925.45" font-family="Times,serif" font-size="14" text-anchor="start">🔑</text><polygon fill="none" stroke="#000" points="581.88 -917 581.88 -941.75 647.12 -941.75 647.12 -917 581.88 -917"/><text x="609.25" y="-924.33" font-family="Times,serif" font-size="14" text-anchor="start">id</text><polygon fill="none" stroke="#000" points="561.62 -894.5 561.62 -917 581.88 -917 581.88 -894.5 561.62 -894.5"/><polygon fill="none" stroke="#000" points="581.88 -894.5 581.88 -917 647.12 -917 647.12 -894.5 581.88 -894.5"/><text x="599.5" y="-900.7" font-family="Times,serif" font-size="14" text-anchor="start">name</text><polygon fill="none" stroke="#000" points="561.62 -872 561.62 -894.5 581.88 -894.5 581.88 -872 561.62 -872"/><polygon fill="none" stroke="#000" points="581.88 -872 581.88 -894.5 647.12 -894.5 647.12 -872 581.88 -872"/><text x="586.75" y="-878.2" font-family="Times,serif" font-size="14" text-anchor="start">created_at</text><polygon fill="none" stroke="#000" points="561.62 -849.5 561.62 -872 581.88 -872 581.88 -849.5 561.62 -849.5"/><polygon fill="none" stroke="#000" points="581.88 -849.5 581.88 -872 647.12 -872 647.12 -849.5 581.88 -849.5"/><text x="584.88" y="-855.7" font-family="Times,serif" font-size="14" text-anchor="start">updated_at</text></g><g id="edge4" class="edge"><title>source_id_read_access_policies:e-&gt;user_groups:w</title><path fill="none" stroke="#000" d="M484.75,-835.5C534.21,-835.5 511.37,-915.28 549.53,-927.75"/><polygon fill="#000" stroke="#000" points="548.73 -931.17 559.13 -929.16 549.74 -924.24 548.73 -931.17"/></g><g id="node19" class="node"><title>thread_messages</title><polygon fill="none" stroke="#000" points="71.38 -2219.75 71.38 -2242.25 182.38 -2242.25 182.38 -2219.75 71.38 -2219.75"/><text x="77.75" y="-2226.95" font-family="Times,serif" font-size="14" font-weight="bold" text-anchor="start">thread_messages</text><polygon fill="none" stroke="#000" points="71.38 -2195 71.38 -2219.75 91.62 -2219.75 91.62 -2195 71.38 -2195"/><text x="74.38" y="-2203.45" font-family="Times,serif" font-size="14" text-anchor="start">🔑</text><polygon fill="none" stroke="#000" points="91.62 -2195 91.62 -2219.75 182.38 -2219.75 182.38 -2195 91.62 -2195"/><text x="131.75" y="-2202.32" font-family="Times,serif" font-size="14" text-anchor="start">id</text><polygon fill="none" stroke="#000" points="71.38 -2172.5 71.38 -2195 91.62 -2195 91.62 -2172.5 71.38 -2172.5"/><polygon fill="none" stroke="#000" points="91.62 -2172.5 91.62 -2195 182.38 -2195 182.38 -2172.5 91.62 -2172.5"/><text x="111.5" y="-2178.7" font-family="Times,serif" font-size="14" text-anchor="start">thread_id</text><polygon fill="none" stroke="#000" points="71.38 -2150 71.38 -2172.5 91.62 -2172.5 91.62 -2150 71.38 -2150"/><polygon fill="none" stroke="#000" points="91.62 -2150 91.62 -2172.5 182.38 -2172.5 182.38 -2150 91.62 -2150"/><text x="126.5" y="-2156.2" font-family="Times,serif" font-size="14" text-anchor="start">role</text><polygon fill="none" stroke="#000" points="71.38 -2127.5 71.38 -2150 91.62 -2150 91.62 -2127.5 71.38 -2127.5"/><polygon fill="none" stroke="#000" points="91.62 -2127.5 91.62 -2150 182.38 -2150 182.38 -2127.5 91.62 -2127.5"/><text x="117.12" y="-2133.7" font-family="Times,serif" font-size="14" text-anchor="start">content</text><polygon fill="none" stroke="#000" points="71.38 -2105 71.38 -2127.5 91.62 -2127.5 91.62 -2105 71.38 -2105"/><polygon fill="none" stroke="#000" points="91.62 -2105 91.62 -2127.5 182.38 -2127.5 182.38 -2105 91.62 -2105"/><text x="109.25" y="-2111.2" font-family="Times,serif" font-size="14" text-anchor="start">created_at</text><polygon fill="none" stroke="#000" points="71.38 -2082.5 71.38 -2105 91.62 -2105 91.62 -2082.5 71.38 -2082.5"/><polygon fill="none" stroke="#000" points="91.62 -2082.5 91.62 -2105 182.38 -2105 182.38 -2082.5 91.62 -2082.5"/><text x="107.38" y="-2088.7" font-family="Times,serif" font-size="14" text-anchor="start">updated_at</text><polygon fill="none" stroke="#000" points="71.38 -2060 71.38 -2082.5 91.62 -2082.5 91.62 -2060 71.38 -2060"/><polygon fill="none" stroke="#000" points="91.62 -2060 91.62 -2082.5 182.38 -2082.5 182.38 -2060 91.62 -2060"/><text x="94.62" y="-2066.2" font-family="Times,serif" font-size="14" text-anchor="start">code_source_id</text><polygon fill="none" stroke="#000" points="71.38 -2037.5 71.38 -2060 91.62 -2060 91.62 -2037.5 71.38 -2037.5"/><polygon fill="none" stroke="#000" points="91.62 -2037.5 91.62 -2060 182.38 -2060 182.38 -2037.5 91.62 -2037.5"/><text x="107" y="-2043.7" font-family="Times,serif" font-size="14" text-anchor="start">attachment</text></g><g id="node20" class="node"><title>threads</title><polygon fill="none" stroke="#000" points="327 -2196.25 327 -2218.75 454.5 -2218.75 454.5 -2196.25 327 -2196.25"/><text x="369" y="-2203.45" font-family="Times,serif" font-size="14" font-weight="bold" text-anchor="start">threads</text><polygon fill="none" stroke="#000" points="327 -2171.5 327 -2196.25 347.25 -2196.25 347.25 -2171.5 327 -2171.5"/><text x="330" y="-2179.95" font-family="Times,serif" font-size="14" text-anchor="start">🔑</text><polygon fill="none" stroke="#000" points="347.25 -2171.5 347.25 -2196.25 454.5 -2196.25 454.5 -2171.5 347.25 -2171.5"/><text x="395.62" y="-2178.82" font-family="Times,serif" font-size="14" text-anchor="start">id</text><polygon fill="none" stroke="#000" points="327 -2149 327 -2171.5 347.25 -2171.5 347.25 -2149 327 -2149"/><polygon fill="none" stroke="#000" points="347.25 -2149 347.25 -2171.5 454.5 -2171.5 454.5 -2149 347.25 -2149"/><text x="364.5" y="-2155.2" font-family="Times,serif" font-size="14" text-anchor="start">is_ephemeral</text><polygon fill="none" stroke="#000" points="327 -2126.5 327 -2149 347.25 -2149 347.25 -2126.5 327 -2126.5"/><polygon fill="none" stroke="#000" points="347.25 -2126.5 347.25 -2149 454.5 -2149 454.5 -2126.5 347.25 -2126.5"/><text x="381" y="-2132.7" font-family="Times,serif" font-size="14" text-anchor="start">user_id</text><polygon fill="none" stroke="#000" points="327 -2104 327 -2126.5 347.25 -2126.5 347.25 -2104 327 -2104"/><polygon fill="none" stroke="#000" points="347.25 -2104 347.25 -2126.5 454.5 -2126.5 454.5 -2104 347.25 -2104"/><text x="373.12" y="-2110.2" font-family="Times,serif" font-size="14" text-anchor="start">created_at</text><polygon fill="none" stroke="#000" points="327 -2081.5 327 -2104 347.25 -2104 347.25 -2081.5 327 -2081.5"/><polygon fill="none" stroke="#000" points="347.25 -2081.5 347.25 -2104 454.5 -2104 454.5 -2081.5 347.25 -2081.5"/><text x="371.25" y="-2087.7" font-family="Times,serif" font-size="14" text-anchor="start">updated_at</text><polygon fill="none" stroke="#000" points="327 -2059 327 -2081.5 347.25 -2081.5 347.25 -2059 327 -2059"/><polygon fill="none" stroke="#000" points="347.25 -2059 347.25 -2081.5 454.5 -2081.5 454.5 -2059 347.25 -2059"/><text x="350.25" y="-2065.2" font-family="Times,serif" font-size="14" text-anchor="start">relevant_questions</text></g><g id="edge5" class="edge"><title>thread_messages:e-&gt;threads:w</title><path fill="none" stroke="#000" d="M183.38,-2183.75C242.8,-2183.75 260.44,-2183.86 314.65,-2183.87"/><polygon fill="#000" stroke="#000" points="314.49 -2187.37 324.49 -2183.87 314.49 -2180.37 314.49 -2187.37"/></g><g id="edge12" class="edge"><title>threads:e-&gt;users:w</title><path fill="none" stroke="#000" d="M455.5,-2137.75C499.4,-2137.75 481.29,-2088.51 491.75,-2045.88 501.72,-2005.26 491.3,-1694.49 525.15,-1646.18"/><polygon fill="#000" stroke="#000" points="527.05 -1649.12 533.48 -1640.71 523.2 -1643.27 527.05 -1649.12"/></g><g id="node21" class="node"><title>user_completions</title><polygon fill="none" stroke="#000" points="337.12 -2010 337.12 -2032.5 444.38 -2032.5 444.38 -2010 337.12 -2010"/><text x="340.12" y="-2017.2" font-family="Times,serif" font-size="14" font-weight="bold" text-anchor="start">user_completions</text><polygon fill="none" stroke="#000" points="337.12 -1985.25 337.12 -2010 358.5 -2010 358.5 -1985.25 337.12 -1985.25"/><text x="340.69" y="-1993.7" font-family="Times,serif" font-size="14" text-anchor="start">🔑</text><polygon fill="none" stroke="#000" points="358.5 -1985.25 358.5 -2010 444.38 -2010 444.38 -1985.25 358.5 -1985.25"/><text x="396.19" y="-1992.58" font-family="Times,serif" font-size="14" text-anchor="start">id</text><polygon fill="none" stroke="#000" points="337.12 -1962.75 337.12 -1985.25 358.5 -1985.25 358.5 -1962.75 337.12 -1962.75"/><polygon fill="none" stroke="#000" points="358.5 -1962.75 358.5 -1985.25 444.38 -1985.25 444.38 -1962.75 358.5 -1962.75"/><text x="381.56" y="-1968.95" font-family="Times,serif" font-size="14" text-anchor="start">user_id</text><polygon fill="none" stroke="#000" points="337.12 -1940.25 337.12 -1962.75 358.5 -1962.75 358.5 -1940.25 337.12 -1940.25"/><polygon fill="none" stroke="#000" points="358.5 -1940.25 358.5 -1962.75 444.38 -1962.75 444.38 -1940.25 358.5 -1940.25"/><text x="362.06" y="-1946.45" font-family="Times,serif" font-size="14" text-anchor="start">completion_id</text><polygon fill="none" stroke="#000" points="337.12 -1917.75 337.12 -1940.25 358.5 -1940.25 358.5 -1917.75 337.12 -1917.75"/><polygon fill="none" stroke="#000" points="358.5 -1917.75 358.5 -1940.25 444.38 -1940.25 444.38 -1917.75 358.5 -1917.75"/><text x="377.06" y="-1923.95" font-family="Times,serif" font-size="14" text-anchor="start">language</text><polygon fill="none" stroke="#000" points="337.12 -1895.25 337.12 -1917.75 358.5 -1917.75 358.5 -1895.25 337.12 -1895.25"/><polygon fill="none" stroke="#000" points="358.5 -1895.25 358.5 -1917.75 444.38 -1917.75 444.38 -1895.25 358.5 -1895.25"/><text x="385.69" y="-1901.45" font-family="Times,serif" font-size="14" text-anchor="start">views</text><polygon fill="none" stroke="#000" points="337.12 -1872.75 337.12 -1895.25 358.5 -1895.25 358.5 -1872.75 337.12 -1872.75"/><polygon fill="none" stroke="#000" points="358.5 -1872.75 358.5 -1895.25 444.38 -1895.25 444.38 -1872.75 358.5 -1872.75"/><text x="383.44" y="-1878.95" font-family="Times,serif" font-size="14" text-anchor="start">selects</text><polygon fill="none" stroke="#000" points="337.12 -1850.25 337.12 -1872.75 358.5 -1872.75 358.5 -1850.25 337.12 -1850.25"/><polygon fill="none" stroke="#000" points="358.5 -1850.25 358.5 -1872.75 444.38 -1872.75 444.38 -1850.25 358.5 -1850.25"/><text x="375.19" y="-1856.45" font-family="Times,serif" font-size="14" text-anchor="start">dismisses</text><polygon fill="none" stroke="#000" points="337.12 -1827.75 337.12 -1850.25 358.5 -1850.25 358.5 -1827.75 337.12 -1827.75"/><polygon fill="none" stroke="#000" points="358.5 -1827.75 358.5 -1850.25 444.38 -1850.25 444.38 -1827.75 358.5 -1827.75"/><text x="373.69" y="-1833.95" font-family="Times,serif" font-size="14" text-anchor="start">created_at</text><polygon fill="none" stroke="#000" points="337.12 -1805.25 337.12 -1827.75 358.5 -1827.75 358.5 -1805.25 337.12 -1805.25"/><polygon fill="none" stroke="#000" points="358.5 -1805.25 358.5 -1827.75 444.38 -1827.75 444.38 -1805.25 358.5 -1805.25"/><text x="371.81" y="-1811.45" font-family="Times,serif" font-size="14" text-anchor="start">updated_at</text></g><g id="edge8" class="edge"><title>user_completions:e-&gt;users:w</title><path fill="none" stroke="#000" d="M445.38,-1974C480.58,-1974 494.03,-1693.64 525.59,-1646.55"/><polygon fill="#000" stroke="#000" points="527.5 -1649.48 533.53 -1640.77 523.38 -1643.82 527.5 -1649.48"/></g><g id="node22" class="node"><title>user_events</title><polygon fill="none" stroke="#000" points="349.88 -1757 349.88 -1779.5 431.62 -1779.5 431.62 -1757 349.88 -1757"/><text x="357" y="-1764.2" font-family="Times,serif" font-size="14" font-weight="bold" text-anchor="start">user_events</text><polygon fill="none" stroke="#000" points="349.88 -1732.25 349.88 -1757 370.12 -1757 370.12 -1732.25 349.88 -1732.25"/><text x="352.88" y="-1740.7" font-family="Times,serif" font-size="14" text-anchor="start">🔑</text><polygon fill="none" stroke="#000" points="370.12 -1732.25 370.12 -1757 431.62 -1757 431.62 -1732.25 370.12 -1732.25"/><text x="395.62" y="-1739.58" font-family="Times,serif" font-size="14" text-anchor="start">id</text><polygon fill="none" stroke="#000" points="349.88 -1709.75 349.88 -1732.25 370.12 -1732.25 370.12 -1709.75 349.88 -1709.75"/><polygon fill="none" stroke="#000" points="370.12 -1709.75 370.12 -1732.25 431.62 -1732.25 431.62 -1709.75 370.12 -1709.75"/><text x="381" y="-1715.95" font-family="Times,serif" font-size="14" text-anchor="start">user_id</text><polygon fill="none" stroke="#000" points="349.88 -1687.25 349.88 -1709.75 370.12 -1709.75 370.12 -1687.25 349.88 -1687.25"/><polygon fill="none" stroke="#000" points="370.12 -1687.25 370.12 -1709.75 431.62 -1709.75 431.62 -1687.25 370.12 -1687.25"/><text x="388.88" y="-1693.45" font-family="Times,serif" font-size="14" text-anchor="start">kind</text><polygon fill="none" stroke="#000" points="349.88 -1664.75 349.88 -1687.25 370.12 -1687.25 370.12 -1664.75 349.88 -1664.75"/><polygon fill="none" stroke="#000" points="370.12 -1664.75 370.12 -1687.25 431.62 -1687.25 431.62 -1664.75 370.12 -1664.75"/><text x="373.12" y="-1670.95" font-family="Times,serif" font-size="14" text-anchor="start">created_at</text><polygon fill="none" stroke="#000" points="349.88 -1642.25 349.88 -1664.75 370.12 -1664.75 370.12 -1642.25 349.88 -1642.25"/><polygon fill="none" stroke="#000" points="370.12 -1642.25 370.12 -1664.75 431.62 -1664.75 431.62 -1642.25 370.12 -1642.25"/><text x="379.5" y="-1648.45" font-family="Times,serif" font-size="14" text-anchor="start">payload</text></g><g id="edge7" class="edge"><title>user_events:e-&gt;users:w</title><path fill="none" stroke="#000" d="M432.62,-1721C486.52,-1721 478.37,-1650.88 523.54,-1641.02"/><polygon fill="#000" stroke="#000" points="523.65 -1644.53 533.24 -1640.03 522.94 -1637.56 523.65 -1644.53"/></g><g id="node23" class="node"><title>user_group_memberships</title><polygon fill="none" stroke="#000" points="312 -1080.25 312 -1102.75 469.5 -1102.75 469.5 -1080.25 312 -1080.25"/><text x="315" y="-1087.45" font-family="Times,serif" font-size="14" font-weight="bold" text-anchor="start">user_group_memberships</text><polygon fill="none" stroke="#000" points="312 -1055.5 312 -1080.25 353.62 -1080.25 353.62 -1055.5 312 -1055.5"/><text x="325.69" y="-1063.95" font-family="Times,serif" font-size="14" text-anchor="start">🔑</text><polygon fill="none" stroke="#000" points="353.62 -1055.5 353.62 -1080.25 469.5 -1080.25 469.5 -1055.5 353.62 -1055.5"/><text x="406.31" y="-1062.83" font-family="Times,serif" font-size="14" text-anchor="start">id</text><polygon fill="none" stroke="#000" points="312 -1033 312 -1055.5 353.62 -1055.5 353.62 -1033 312 -1033"/><polygon fill="none" stroke="#000" points="353.62 -1033 353.62 -1055.5 469.5 -1055.5 469.5 -1033 353.62 -1033"/><text x="391.69" y="-1039.2" font-family="Times,serif" font-size="14" text-anchor="start">user_id</text><polygon fill="none" stroke="#000" points="312 -1010.5 312 -1033 353.62 -1033 353.62 -1010.5 312 -1010.5"/><polygon fill="none" stroke="#000" points="353.62 -1010.5 353.62 -1033 469.5 -1033 469.5 -1010.5 353.62 -1010.5"/><text x="372.56" y="-1016.7" font-family="Times,serif" font-size="14" text-anchor="start">user_group_id</text><polygon fill="none" stroke="#000" points="312 -988 312 -1010.5 353.62 -1010.5 353.62 -988 312 -988"/><polygon fill="none" stroke="#000" points="353.62 -988 353.62 -1010.5 469.5 -1010.5 469.5 -988 353.62 -988"/><text x="367.31" y="-994.2" font-family="Times,serif" font-size="14" text-anchor="start">is_group_admin</text><polygon fill="none" stroke="#000" points="312 -965.5 312 -988 353.62 -988 353.62 -965.5 312 -965.5"/><polygon fill="none" stroke="#000" points="353.62 -965.5 353.62 -988 469.5 -988 469.5 -965.5 353.62 -965.5"/><text x="383.81" y="-971.7" font-family="Times,serif" font-size="14" text-anchor="start">created_at</text><polygon fill="none" stroke="#000" points="312 -943 312 -965.5 353.62 -965.5 353.62 -943 312 -943"/><polygon fill="none" stroke="#000" points="353.62 -943 353.62 -965.5 469.5 -965.5 469.5 -943 353.62 -943"/><text x="381.94" y="-949.2" font-family="Times,serif" font-size="14" text-anchor="start">updated_at</text></g><g id="edge9" class="edge"><title>user_group_memberships:e-&gt;user_groups:w</title><path fill="none" stroke="#000" d="M470.5,-1021.75C523.71,-1021.75 506.39,-942.24 549.41,-930.75"/><polygon fill="#000" stroke="#000" points="549.62 -934.25 559.12 -929.56 548.77 -927.31 549.62 -934.25"/></g><g id="edge10" class="edge"><title>user_group_memberships:e-&gt;users:w</title><path fill="none" stroke="#000" d="M470.5,-1044.25C533.29,-1044.25 475.55,-1574.31 524.69,-1634.36"/><polygon fill="#000" stroke="#000" points="522.97 -1637.41 533.42 -1639.15 526.34 -1631.27 522.97 -1637.41"/></g><g id="node26" class="node"><title>web_documents</title><polygon fill="none" stroke="#000" points="77.38 -3036.25 77.38 -3058.75 176.38 -3058.75 176.38 -3036.25 77.38 -3036.25"/><text x="80.38" y="-3043.45" font-family="Times,serif" font-size="14" font-weight="bold" text-anchor="start">web_documents</text><polygon fill="none" stroke="#000" points="77.38 -3011.5 77.38 -3036.25 104.38 -3036.25 104.38 -3011.5 77.38 -3011.5"/><text x="83.75" y="-3019.95" font-family="Times,serif" font-size="14" text-anchor="start">🔑</text><polygon fill="none" stroke="#000" points="104.38 -3011.5 104.38 -3036.25 176.38 -3036.25 176.38 -3011.5 104.38 -3011.5"/><text x="135.12" y="-3018.82" font-family="Times,serif" font-size="14" text-anchor="start">id</text><polygon fill="none" stroke="#000" points="77.38 -2989 77.38 -3011.5 104.38 -3011.5 104.38 -2989 77.38 -2989"/><polygon fill="none" stroke="#000" points="104.38 -2989 104.38 -3011.5 176.38 -3011.5 176.38 -2989 104.38 -2989"/><text x="125.38" y="-2995.2" font-family="Times,serif" font-size="14" text-anchor="start">name</text><polygon fill="none" stroke="#000" points="77.38 -2966.5 77.38 -2989 104.38 -2989 104.38 -2966.5 77.38 -2966.5"/><polygon fill="none" stroke="#000" points="104.38 -2966.5 104.38 -2989 176.38 -2989 176.38 -2966.5 104.38 -2966.5"/><text x="132.88" y="-2972.7" font-family="Times,serif" font-size="14" text-anchor="start">url</text><polygon fill="none" stroke="#000" points="77.38 -2944 77.38 -2966.5 104.38 -2966.5 104.38 -2944 77.38 -2944"/><polygon fill="none" stroke="#000" points="104.38 -2944 104.38 -2966.5 176.38 -2966.5 176.38 -2944 104.38 -2944"/><text x="116.38" y="-2950.2" font-family="Times,serif" font-size="14" text-anchor="start">is_preset</text><polygon fill="none" stroke="#000" points="77.38 -2921.5 77.38 -2944 104.38 -2944 104.38 -2921.5 77.38 -2921.5"/><polygon fill="none" stroke="#000" points="104.38 -2921.5 104.38 -2944 176.38 -2944 176.38 -2921.5 104.38 -2921.5"/><text x="112.62" y="-2927.7" font-family="Times,serif" font-size="14" text-anchor="start">created_at</text><polygon fill="none" stroke="#000" points="77.38 -2899 77.38 -2921.5 104.38 -2921.5 104.38 -2899 77.38 -2899"/><polygon fill="none" stroke="#000" points="104.38 -2899 104.38 -2921.5 176.38 -2921.5 176.38 -2899 104.38 -2899"/><text x="110.75" y="-2905.2" font-family="Times,serif" font-size="14" text-anchor="start">updated_at</text></g></g></svg>