<svg xmlns="http://www.w3.org/2000/svg" xmlns:xlink="http://www.w3.org/1999/xlink" width="689pt" height="3028pt" viewBox="0 0 689 3027.75"><g id="graph0" class="graph" transform="scale(1 1) rotate(0) translate(4 3023.75)"><title>structs</title><polygon fill="#fff" stroke="none" points="-4 4 -4 -3023.75 685 -3023.75 685 4 -4 4"/><g id="node1" class="node"><title>_sqlx_migrations</title><polygon fill="none" stroke="#000" points="71.75 -141.25 71.75 -163.75 182 -163.75 182 -141.25 71.75 -141.25"/><text x="77" y="-148.45" font-family="Times,serif" font-size="14" font-weight="bold" text-anchor="start">_sqlx_migrations</text><polygon fill="none" stroke="#000" points="71.75 -116.5 71.75 -141.25 92 -141.25 92 -116.5 71.75 -116.5"/><text x="74.75" y="-124.95" font-family="Times,serif" font-size="14" text-anchor="start">🔑</text><polygon fill="none" stroke="#000" points="92 -116.5 92 -141.25 182 -141.25 182 -116.5 92 -116.5"/><text x="117.12" y="-123.83" font-family="Times,serif" font-size="14" text-anchor="start">version</text><polygon fill="none" stroke="#000" points="71.75 -94 71.75 -116.5 92 -116.5 92 -94 71.75 -94"/><polygon fill="none" stroke="#000" points="92 -94 92 -116.5 182 -116.5 182 -94 92 -94"/><text x="107" y="-100.2" font-family="Times,serif" font-size="14" text-anchor="start">description</text><polygon fill="none" stroke="#000" points="71.75 -71.5 71.75 -94 92 -94 92 -71.5 71.75 -71.5"/><polygon fill="none" stroke="#000" points="92 -71.5 92 -94 182 -94 182 -71.5 92 -71.5"/><text x="104" y="-77.7" font-family="Times,serif" font-size="14" text-anchor="start">installed_on</text><polygon fill="none" stroke="#000" points="71.75 -49 71.75 -71.5 92 -71.5 92 -49 71.75 -49"/><polygon fill="none" stroke="#000" points="92 -49 92 -71.5 182 -71.5 182 -49 92 -49"/><text x="116.75" y="-55.2" font-family="Times,serif" font-size="14" text-anchor="start">success</text><polygon fill="none" stroke="#000" points="71.75 -26.5 71.75 -49 92 -49 92 -26.5 71.75 -26.5"/><polygon fill="none" stroke="#000" points="92 -26.5 92 -49 182 -49 182 -26.5 92 -26.5"/><text x="109.62" y="-32.7" font-family="Times,serif" font-size="14" text-anchor="start">checksum</text><polygon fill="none" stroke="#000" points="71.75 -4 71.75 -26.5 92 -26.5 92 -4 71.75 -4"/><polygon fill="none" stroke="#000" points="92 -4 92 -26.5 182 -26.5 182 -4 92 -4"/><text x="95" y="-10.2" font-family="Times,serif" font-size="14" text-anchor="start">execution_time</text></g><g id="node2" class="node"><title>email_setting</title><polygon fill="none" stroke="#000" points="70.62 -371.75 70.62 -394.25 183.12 -394.25 183.12 -371.75 70.62 -371.75"/><text x="88.25" y="-378.95" font-family="Times,serif" font-size="14" font-weight="bold" text-anchor="start">email_setting</text><polygon fill="none" stroke="#000" points="70.62 -347 70.62 -371.75 90.88 -371.75 90.88 -347 70.62 -347"/><text x="73.62" y="-355.45" font-family="Times,serif" font-size="14" text-anchor="start">🔑</text><polygon fill="none" stroke="#000" points="90.88 -347 90.88 -371.75 183.12 -371.75 183.12 -347 90.88 -347"/><text x="131.75" y="-354.32" font-family="Times,serif" font-size="14" text-anchor="start">id</text><polygon fill="none" stroke="#000" points="70.62 -324.5 70.62 -347 90.88 -347 90.88 -324.5 70.62 -324.5"/><polygon fill="none" stroke="#000" points="90.88 -324.5 90.88 -347 183.12 -347 183.12 -324.5 90.88 -324.5"/><text x="93.88" y="-330.7" font-family="Times,serif" font-size="14" text-anchor="start">smtp_username</text><polygon fill="none" stroke="#000" points="70.62 -302 70.62 -324.5 90.88 -324.5 90.88 -302 70.62 -302"/><polygon fill="none" stroke="#000" points="90.88 -302 90.88 -324.5 183.12 -324.5 183.12 -302 90.88 -302"/><text x="94.62" y="-308.2" font-family="Times,serif" font-size="14" text-anchor="start">smtp_password</text><polygon fill="none" stroke="#000" points="70.62 -279.5 70.62 -302 90.88 -302 90.88 -279.5 70.62 -279.5"/><polygon fill="none" stroke="#000" points="90.88 -279.5 90.88 -302 183.12 -302 183.12 -279.5 90.88 -279.5"/><text x="103.62" y="-285.7" font-family="Times,serif" font-size="14" text-anchor="start">smtp_server</text><polygon fill="none" stroke="#000" points="70.62 -257 70.62 -279.5 90.88 -279.5 90.88 -257 70.62 -257"/><polygon fill="none" stroke="#000" points="90.88 -257 90.88 -279.5 183.12 -279.5 183.12 -257 90.88 -257"/><text x="99.88" y="-263.2" font-family="Times,serif" font-size="14" text-anchor="start">from_address</text><polygon fill="none" stroke="#000" points="70.62 -234.5 70.62 -257 90.88 -257 90.88 -234.5 70.62 -234.5"/><polygon fill="none" stroke="#000" points="90.88 -234.5 90.88 -257 183.12 -257 183.12 -234.5 90.88 -234.5"/><text x="108.12" y="-240.7" font-family="Times,serif" font-size="14" text-anchor="start">encryption</text><polygon fill="none" stroke="#000" points="70.62 -212 70.62 -234.5 90.88 -234.5 90.88 -212 70.62 -212"/><polygon fill="none" stroke="#000" points="90.88 -212 90.88 -234.5 183.12 -234.5 183.12 -212 90.88 -212"/><text x="101.38" y="-218.2" font-family="Times,serif" font-size="14" text-anchor="start">auth_method</text><polygon fill="none" stroke="#000" points="70.62 -189.5 70.62 -212 90.88 -212 90.88 -189.5 70.62 -189.5"/><polygon fill="none" stroke="#000" points="90.88 -189.5 90.88 -212 183.12 -212 183.12 -189.5 90.88 -189.5"/><text x="109.25" y="-195.7" font-family="Times,serif" font-size="14" text-anchor="start">smtp_port</text></g><g id="node3" class="node"><title>integrations</title><polygon fill="none" stroke="#000" points="339.75 -580 339.75 -602.5 441.75 -602.5 441.75 -580 339.75 -580"/><text x="356.25" y="-587.2" font-family="Times,serif" font-size="14" font-weight="bold" text-anchor="start">integrations</text><polygon fill="none" stroke="#000" points="339.75 -555.25 339.75 -580 360 -580 360 -555.25 339.75 -555.25"/><text x="342.75" y="-563.7" font-family="Times,serif" font-size="14" text-anchor="start">🔑</text><polygon fill="none" stroke="#000" points="360 -555.25 360 -580 441.75 -580 441.75 -555.25 360 -555.25"/><text x="395.62" y="-562.58" font-family="Times,serif" font-size="14" text-anchor="start">id</text><polygon fill="none" stroke="#000" points="339.75 -532.75 339.75 -555.25 360 -555.25 360 -532.75 339.75 -532.75"/><polygon fill="none" stroke="#000" points="360 -532.75 360 -555.25 441.75 -555.25 441.75 -532.75 360 -532.75"/><text x="388.88" y="-538.95" font-family="Times,serif" font-size="14" text-anchor="start">kind</text><polygon fill="none" stroke="#000" points="339.75 -510.25 339.75 -532.75 360 -532.75 360 -510.25 339.75 -510.25"/><polygon fill="none" stroke="#000" points="360 -510.25 360 -532.75 441.75 -532.75 441.75 -510.25 360 -510.25"/><text x="363" y="-516.45" font-family="Times,serif" font-size="14" text-anchor="start">display_name</text><polygon fill="none" stroke="#000" points="339.75 -487.75 339.75 -510.25 360 -510.25 360 -487.75 339.75 -487.75"/><polygon fill="none" stroke="#000" points="360 -487.75 360 -510.25 441.75 -510.25 441.75 -487.75 360 -487.75"/><text x="365.25" y="-493.95" font-family="Times,serif" font-size="14" text-anchor="start">access_token</text><polygon fill="none" stroke="#000" points="339.75 -465.25 339.75 -487.75 360 -487.75 360 -465.25 339.75 -465.25"/><polygon fill="none" stroke="#000" points="360 -465.25 360 -487.75 441.75 -487.75 441.75 -465.25 360 -465.25"/><text x="377.25" y="-471.45" font-family="Times,serif" font-size="14" text-anchor="start">api_base</text><polygon fill="none" stroke="#000" points="339.75 -442.75 339.75 -465.25 360 -465.25 360 -442.75 339.75 -442.75"/><polygon fill="none" stroke="#000" points="360 -442.75 360 -465.25 441.75 -465.25 441.75 -442.75 360 -442.75"/><text x="387.75" y="-448.95" font-family="Times,serif" font-size="14" text-anchor="start">error</text><polygon fill="none" stroke="#000" points="339.75 -420.25 339.75 -442.75 360 -442.75 360 -420.25 339.75 -420.25"/><polygon fill="none" stroke="#000" points="360 -420.25 360 -442.75 441.75 -442.75 441.75 -420.25 360 -420.25"/><text x="373.12" y="-426.45" font-family="Times,serif" font-size="14" text-anchor="start">created_at</text><polygon fill="none" stroke="#000" points="339.75 -397.75 339.75 -420.25 360 -420.25 360 -397.75 339.75 -397.75"/><polygon fill="none" stroke="#000" points="360 -397.75 360 -420.25 441.75 -420.25 441.75 -397.75 360 -397.75"/><text x="371.25" y="-403.95" font-family="Times,serif" font-size="14" text-anchor="start">updated_at</text><polygon fill="none" stroke="#000" points="339.75 -375.25 339.75 -397.75 360 -397.75 360 -375.25 339.75 -375.25"/><polygon fill="none" stroke="#000" points="360 -375.25 360 -397.75 441.75 -397.75 441.75 -375.25 360 -375.25"/><text x="382.12" y="-381.45" font-family="Times,serif" font-size="14" text-anchor="start">synced</text></g><g id="node4" class="node"><title>invitations</title><polygon fill="none" stroke="#000" points="86 -743.75 86 -766.25 167.75 -766.25 167.75 -743.75 86 -743.75"/><text x="96.5" y="-750.95" font-family="Times,serif" font-size="14" font-weight="bold" text-anchor="start">invitations</text><polygon fill="none" stroke="#000" points="86 -719 86 -743.75 106.25 -743.75 106.25 -719 86 -719"/><text x="89" y="-727.45" font-family="Times,serif" font-size="14" text-anchor="start">🔑</text><polygon fill="none" stroke="#000" points="106.25 -719 106.25 -743.75 167.75 -743.75 167.75 -719 106.25 -719"/><text x="131.75" y="-726.33" font-family="Times,serif" font-size="14" text-anchor="start">id</text><polygon fill="none" stroke="#000" points="86 -696.5 86 -719 106.25 -719 106.25 -696.5 86 -696.5"/><polygon fill="none" stroke="#000" points="106.25 -696.5 106.25 -719 167.75 -719 167.75 -696.5 106.25 -696.5"/><text x="121.62" y="-702.7" font-family="Times,serif" font-size="14" text-anchor="start">email</text><polygon fill="none" stroke="#000" points="86 -674 86 -696.5 106.25 -696.5 106.25 -674 86 -674"/><polygon fill="none" stroke="#000" points="106.25 -674 106.25 -696.5 167.75 -696.5 167.75 -674 106.25 -674"/><text x="124.25" y="-680.2" font-family="Times,serif" font-size="14" text-anchor="start">code</text><polygon fill="none" stroke="#000" points="86 -651.5 86 -674 106.25 -674 106.25 -651.5 86 -651.5"/><polygon fill="none" stroke="#000" points="106.25 -651.5 106.25 -674 167.75 -674 167.75 -651.5 106.25 -651.5"/><text x="109.25" y="-657.7" font-family="Times,serif" font-size="14" text-anchor="start">created_at</text></g><g id="node5" class="node"><title>job_runs</title><polygon fill="none" stroke="#000" points="84.12 -1042.5 84.12 -1065 169.62 -1065 169.62 -1042.5 84.12 -1042.5"/><text x="101" y="-1049.7" font-family="Times,serif" font-size="14" font-weight="bold" text-anchor="start">job_runs</text><polygon fill="none" stroke="#000" points="84.12 -1017.75 84.12 -1042.5 104.38 -1042.5 104.38 -1017.75 84.12 -1017.75"/><text x="87.12" y="-1026.2" font-family="Times,serif" font-size="14" text-anchor="start">🔑</text><polygon fill="none" stroke="#000" points="104.38 -1017.75 104.38 -1042.5 169.62 -1042.5 169.62 -1017.75 104.38 -1017.75"/><text x="131.75" y="-1025.08" font-family="Times,serif" font-size="14" text-anchor="start">id</text><polygon fill="none" stroke="#000" points="84.12 -995.25 84.12 -1017.75 104.38 -1017.75 104.38 -995.25 84.12 -995.25"/><polygon fill="none" stroke="#000" points="104.38 -995.25 104.38 -1017.75 169.62 -1017.75 169.62 -995.25 104.38 -995.25"/><text x="128.38" y="-1001.45" font-family="Times,serif" font-size="14" text-anchor="start">job</text><polygon fill="none" stroke="#000" points="84.12 -972.75 84.12 -995.25 104.38 -995.25 104.38 -972.75 84.12 -972.75"/><polygon fill="none" stroke="#000" points="104.38 -972.75 104.38 -995.25 169.62 -995.25 169.62 -972.75 104.38 -972.75"/><text x="117.5" y="-978.95" font-family="Times,serif" font-size="14" text-anchor="start">start_ts</text><polygon fill="none" stroke="#000" points="84.12 -950.25 84.12 -972.75 104.38 -972.75 104.38 -950.25 84.12 -950.25"/><polygon fill="none" stroke="#000" points="104.38 -950.25 104.38 -972.75 169.62 -972.75 169.62 -950.25 104.38 -950.25"/><text x="119.38" y="-956.45" font-family="Times,serif" font-size="14" text-anchor="start">end_ts</text><polygon fill="none" stroke="#000" points="84.12 -927.75 84.12 -950.25 104.38 -950.25 104.38 -927.75 84.12 -927.75"/><polygon fill="none" stroke="#000" points="104.38 -927.75 104.38 -950.25 169.62 -950.25 169.62 -927.75 104.38 -927.75"/><text x="110.75" y="-933.95" font-family="Times,serif" font-size="14" text-anchor="start">exit_code</text><polygon fill="none" stroke="#000" points="84.12 -905.25 84.12 -927.75 104.38 -927.75 104.38 -905.25 84.12 -905.25"/><polygon fill="none" stroke="#000" points="104.38 -905.25 104.38 -927.75 169.62 -927.75 169.62 -905.25 104.38 -905.25"/><text x="120.5" y="-911.45" font-family="Times,serif" font-size="14" text-anchor="start">stdout</text><polygon fill="none" stroke="#000" points="84.12 -882.75 84.12 -905.25 104.38 -905.25 104.38 -882.75 84.12 -882.75"/><polygon fill="none" stroke="#000" points="104.38 -882.75 104.38 -905.25 169.62 -905.25 169.62 -882.75 104.38 -882.75"/><text x="121.62" y="-888.95" font-family="Times,serif" font-size="14" text-anchor="start">stderr</text><polygon fill="none" stroke="#000" points="84.12 -860.25 84.12 -882.75 104.38 -882.75 104.38 -860.25 84.12 -860.25"/><polygon fill="none" stroke="#000" points="104.38 -860.25 104.38 -882.75 169.62 -882.75 169.62 -860.25 104.38 -860.25"/><text x="109.25" y="-866.45" font-family="Times,serif" font-size="14" text-anchor="start">created_at</text><polygon fill="none" stroke="#000" points="84.12 -837.75 84.12 -860.25 104.38 -860.25 104.38 -837.75 84.12 -837.75"/><polygon fill="none" stroke="#000" points="104.38 -837.75 104.38 -860.25 169.62 -860.25 169.62 -837.75 104.38 -837.75"/><text x="107.38" y="-843.95" font-family="Times,serif" font-size="14" text-anchor="start">updated_at</text><polygon fill="none" stroke="#000" points="84.12 -815.25 84.12 -837.75 104.38 -837.75 104.38 -815.25 84.12 -815.25"/><polygon fill="none" stroke="#000" points="104.38 -815.25 104.38 -837.75 169.62 -837.75 169.62 -815.25 104.38 -815.25"/><text x="109.62" y="-821.45" font-family="Times,serif" font-size="14" text-anchor="start">command</text><polygon fill="none" stroke="#000" points="84.12 -792.75 84.12 -815.25 104.38 -815.25 104.38 -792.75 84.12 -792.75"/><polygon fill="none" stroke="#000" points="104.38 -792.75 104.38 -815.25 169.62 -815.25 169.62 -792.75 104.38 -792.75"/><text x="110.75" y="-798.95" font-family="Times,serif" font-size="14" text-anchor="start">started_at</text></g><g id="node6" class="node"><title>ldap_credential</title><polygon fill="none" stroke="#000" points="72.5 -1386 72.5 -1408.5 181.25 -1408.5 181.25 -1386 72.5 -1386"/><text x="81.88" y="-1393.2" font-family="Times,serif" font-size="14" font-weight="bold" text-anchor="start">ldap_credential</text><polygon fill="none" stroke="#000" points="72.5 -1361.25 72.5 -1386 92.75 -1386 92.75 -1361.25 72.5 -1361.25"/><text x="75.5" y="-1369.7" font-family="Times,serif" font-size="14" text-anchor="start">🔑</text><polygon fill="none" stroke="#000" points="92.75 -1361.25 92.75 -1386 181.25 -1386 181.25 -1361.25 92.75 -1361.25"/><text x="131.75" y="-1368.58" font-family="Times,serif" font-size="14" text-anchor="start">id</text><polygon fill="none" stroke="#000" points="72.5 -1338.75 72.5 -1361.25 92.75 -1361.25 92.75 -1338.75 72.5 -1338.75"/><polygon fill="none" stroke="#000" points="92.75 -1338.75 92.75 -1361.25 181.25 -1361.25 181.25 -1338.75 92.75 -1338.75"/><text x="125.75" y="-1344.95" font-family="Times,serif" font-size="14" text-anchor="start">host</text><polygon fill="none" stroke="#000" points="72.5 -1316.25 72.5 -1338.75 92.75 -1338.75 92.75 -1316.25 72.5 -1316.25"/><polygon fill="none" stroke="#000" points="92.75 -1316.25 92.75 -1338.75 181.25 -1338.75 181.25 -1316.25 92.75 -1316.25"/><text x="126.12" y="-1322.45" font-family="Times,serif" font-size="14" text-anchor="start">port</text><polygon fill="none" stroke="#000" points="72.5 -1293.75 72.5 -1316.25 92.75 -1316.25 92.75 -1293.75 72.5 -1293.75"/><polygon fill="none" stroke="#000" points="92.75 -1293.75 92.75 -1316.25 181.25 -1316.25 181.25 -1293.75 92.75 -1293.75"/><text x="114.88" y="-1299.95" font-family="Times,serif" font-size="14" text-anchor="start">bind_dn</text><polygon fill="none" stroke="#000" points="72.5 -1271.25 72.5 -1293.75 92.75 -1293.75 92.75 -1271.25 72.5 -1271.25"/><polygon fill="none" stroke="#000" points="92.75 -1271.25 92.75 -1293.75 181.25 -1293.75 181.25 -1271.25 92.75 -1271.25"/><text x="96.12" y="-1277.45" font-family="Times,serif" font-size="14" text-anchor="start">bind_password</text><polygon fill="none" stroke="#000" points="72.5 -1248.75 72.5 -1271.25 92.75 -1271.25 92.75 -1248.75 72.5 -1248.75"/><polygon fill="none" stroke="#000" points="92.75 -1248.75 92.75 -1271.25 181.25 -1271.25 181.25 -1248.75 92.75 -1248.75"/><text x="114.88" y="-1254.95" font-family="Times,serif" font-size="14" text-anchor="start">base_dn</text><polygon fill="none" stroke="#000" points="72.5 -1226.25 72.5 -1248.75 92.75 -1248.75 92.75 -1226.25 72.5 -1226.25"/><polygon fill="none" stroke="#000" points="92.75 -1226.25 92.75 -1248.75 181.25 -1248.75 181.25 -1226.25 92.75 -1226.25"/><text x="109.25" y="-1232.45" font-family="Times,serif" font-size="14" text-anchor="start">user_filter</text><polygon fill="none" stroke="#000" points="72.5 -1203.75 72.5 -1226.25 92.75 -1226.25 92.75 -1203.75 72.5 -1203.75"/><polygon fill="none" stroke="#000" points="92.75 -1203.75 92.75 -1226.25 181.25 -1226.25 181.25 -1203.75 92.75 -1203.75"/><text x="108.12" y="-1209.95" font-family="Times,serif" font-size="14" text-anchor="start">encryption</text><polygon fill="none" stroke="#000" points="72.5 -1181.25 72.5 -1203.75 92.75 -1203.75 92.75 -1181.25 72.5 -1181.25"/><polygon fill="none" stroke="#000" points="92.75 -1181.25 92.75 -1203.75 181.25 -1203.75 181.25 -1181.25 92.75 -1181.25"/><text x="96.5" y="-1187.45" font-family="Times,serif" font-size="14" text-anchor="start">skip_tls_verify</text><polygon fill="none" stroke="#000" points="72.5 -1158.75 72.5 -1181.25 92.75 -1181.25 92.75 -1158.75 72.5 -1158.75"/><polygon fill="none" stroke="#000" points="92.75 -1158.75 92.75 -1181.25 181.25 -1181.25 181.25 -1158.75 92.75 -1158.75"/><text x="95.75" y="-1164.95" font-family="Times,serif" font-size="14" text-anchor="start">email_attribute</text><polygon fill="none" stroke="#000" points="72.5 -1136.25 72.5 -1158.75 92.75 -1158.75 92.75 -1136.25 72.5 -1136.25"/><polygon fill="none" stroke="#000" points="92.75 -1136.25 92.75 -1158.75 181.25 -1158.75 181.25 -1136.25 92.75 -1136.25"/><text x="96.12" y="-1142.45" font-family="Times,serif" font-size="14" text-anchor="start">name_attribute</text><polygon fill="none" stroke="#000" points="72.5 -1113.75 72.5 -1136.25 92.75 -1136.25 92.75 -1113.75 72.5 -1113.75"/><polygon fill="none" stroke="#000" points="92.75 -1113.75 92.75 -1136.25 181.25 -1136.25 181.25 -1113.75 92.75 -1113.75"/><text x="109.25" y="-1119.95" font-family="Times,serif" font-size="14" text-anchor="start">created_at</text><polygon fill="none" stroke="#000" points="72.5 -1091.25 72.5 -1113.75 92.75 -1113.75 92.75 -1091.25 72.5 -1091.25"/><polygon fill="none" stroke="#000" points="92.75 -1091.25 92.75 -1113.75 181.25 -1113.75 181.25 -1091.25 92.75 -1091.25"/><text x="107.38" y="-1097.45" font-family="Times,serif" font-size="14" text-anchor="start">updated_at</text></g><g id="node7" class="node"><title>notifications</title><polygon fill="none" stroke="#000" points="561.62 -2292 561.62 -2314.5 647.12 -2314.5 647.12 -2292 561.62 -2292"/><text x="568.75" y="-2299.2" font-family="Times,serif" font-size="14" font-weight="bold" text-anchor="start">notifications</text><polygon fill="none" stroke="#000" points="561.62 -2267.25 561.62 -2292 581.88 -2292 581.88 -2267.25 561.62 -2267.25"/><text x="564.62" y="-2275.7" font-family="Times,serif" font-size="14" text-anchor="start">🔑</text><polygon fill="none" stroke="#000" points="581.88 -2267.25 581.88 -2292 647.12 -2292 647.12 -2267.25 581.88 -2267.25"/><text x="609.25" y="-2274.57" font-family="Times,serif" font-size="14" text-anchor="start">id</text><polygon fill="none" stroke="#000" points="561.62 -2244.75 561.62 -2267.25 581.88 -2267.25 581.88 -2244.75 561.62 -2244.75"/><polygon fill="none" stroke="#000" points="581.88 -2244.75 581.88 -2267.25 647.12 -2267.25 647.12 -2244.75 581.88 -2244.75"/><text x="586.75" y="-2250.95" font-family="Times,serif" font-size="14" text-anchor="start">created_at</text><polygon fill="none" stroke="#000" points="561.62 -2222.25 561.62 -2244.75 581.88 -2244.75 581.88 -2222.25 561.62 -2222.25"/><polygon fill="none" stroke="#000" points="581.88 -2222.25 581.88 -2244.75 647.12 -2244.75 647.12 -2222.25 581.88 -2222.25"/><text x="584.88" y="-2228.45" font-family="Times,serif" font-size="14" text-anchor="start">updated_at</text><polygon fill="none" stroke="#000" points="561.62 -2199.75 561.62 -2222.25 581.88 -2222.25 581.88 -2199.75 561.62 -2199.75"/><polygon fill="none" stroke="#000" points="581.88 -2199.75 581.88 -2222.25 647.12 -2222.25 647.12 -2199.75 581.88 -2199.75"/><text x="590.88" y="-2205.95" font-family="Times,serif" font-size="14" text-anchor="start">recipient</text><polygon fill="none" stroke="#000" points="561.62 -2177.25 561.62 -2199.75 581.88 -2199.75 581.88 -2177.25 561.62 -2177.25"/><polygon fill="none" stroke="#000" points="581.88 -2177.25 581.88 -2199.75 647.12 -2199.75 647.12 -2177.25 581.88 -2177.25"/><text x="594.62" y="-2183.45" font-family="Times,serif" font-size="14" text-anchor="start">content</text></g><g id="node8" class="node"><title>oauth_credential</title><polygon fill="none" stroke="#000" points="75.12 -2384.25 75.12 -2406.75 178.62 -2406.75 178.62 -2384.25 75.12 -2384.25"/><text x="78.12" y="-2391.45" font-family="Times,serif" font-size="14" font-weight="bold" text-anchor="start">oauth_credential</text><polygon fill="none" stroke="#000" points="75.12 -2359.5 75.12 -2384.25 99.88 -2384.25 99.88 -2359.5 75.12 -2359.5"/><text x="80.38" y="-2367.95" font-family="Times,serif" font-size="14" text-anchor="start">🔑</text><polygon fill="none" stroke="#000" points="99.88 -2359.5 99.88 -2384.25 178.62 -2384.25 178.62 -2359.5 99.88 -2359.5"/><text x="134" y="-2366.82" font-family="Times,serif" font-size="14" text-anchor="start">id</text><polygon fill="none" stroke="#000" points="75.12 -2337 75.12 -2359.5 99.88 -2359.5 99.88 -2337 75.12 -2337"/><polygon fill="none" stroke="#000" points="99.88 -2337 99.88 -2359.5 178.62 -2359.5 178.62 -2337 99.88 -2337"/><text x="116.38" y="-2343.2" font-family="Times,serif" font-size="14" text-anchor="start">provider</text><polygon fill="none" stroke="#000" points="75.12 -2314.5 75.12 -2337 99.88 -2337 99.88 -2314.5 75.12 -2314.5"/><polygon fill="none" stroke="#000" points="99.88 -2314.5 99.88 -2337 178.62 -2337 178.62 -2314.5 99.88 -2314.5"/><text x="115.62" y="-2320.7" font-family="Times,serif" font-size="14" text-anchor="start">client_id</text><polygon fill="none" stroke="#000" points="75.12 -2292 75.12 -2314.5 99.88 -2314.5 99.88 -2292 75.12 -2292"/><polygon fill="none" stroke="#000" points="99.88 -2292 99.88 -2314.5 178.62 -2314.5 178.62 -2292 99.88 -2292"/><text x="105.12" y="-2298.2" font-family="Times,serif" font-size="14" text-anchor="start">client_secret</text><polygon fill="none" stroke="#000" points="75.12 -2269.5 75.12 -2292 99.88 -2292 99.88 -2269.5 75.12 -2269.5"/><polygon fill="none" stroke="#000" points="99.88 -2269.5 99.88 -2292 178.62 -2292 178.62 -2269.5 99.88 -2269.5"/><text x="111.5" y="-2275.7" font-family="Times,serif" font-size="14" text-anchor="start">created_at</text><polygon fill="none" stroke="#000" points="75.12 -2247 75.12 -2269.5 99.88 -2269.5 99.88 -2247 75.12 -2247"/><polygon fill="none" stroke="#000" points="99.88 -2247 99.88 -2269.5 178.62 -2269.5 178.62 -2247 99.88 -2247"/><text x="109.62" y="-2253.2" font-family="Times,serif" font-size="14" text-anchor="start">updated_at</text></g><g id="node9" class="node"><title>page_sections</title><polygon fill="none" stroke="#000" points="84.12 -1594.5 84.12 -1617 169.62 -1617 169.62 -1594.5 84.12 -1594.5"/><text x="87.5" y="-1601.7" font-family="Times,serif" font-size="14" font-weight="bold" text-anchor="start">page_sections</text><polygon fill="none" stroke="#000" points="84.12 -1569.75 84.12 -1594.5 104.38 -1594.5 104.38 -1569.75 84.12 -1569.75"/><text x="87.12" y="-1578.2" font-family="Times,serif" font-size="14" text-anchor="start">🔑</text><polygon fill="none" stroke="#000" points="104.38 -1569.75 104.38 -1594.5 169.62 -1594.5 169.62 -1569.75 104.38 -1569.75"/><text x="131.75" y="-1577.08" font-family="Times,serif" font-size="14" text-anchor="start">id</text><polygon fill="none" stroke="#000" points="84.12 -1547.25 84.12 -1569.75 104.38 -1569.75 104.38 -1547.25 84.12 -1547.25"/><polygon fill="none" stroke="#000" points="104.38 -1547.25 104.38 -1569.75 169.62 -1569.75 169.62 -1547.25 104.38 -1547.25"/><text x="115.62" y="-1553.45" font-family="Times,serif" font-size="14" text-anchor="start">page_id</text><polygon fill="none" stroke="#000" points="84.12 -1524.75 84.12 -1547.25 104.38 -1547.25 104.38 -1524.75 84.12 -1524.75"/><polygon fill="none" stroke="#000" points="104.38 -1524.75 104.38 -1547.25 169.62 -1547.25 169.62 -1524.75 104.38 -1524.75"/><text x="126.5" y="-1530.95" font-family="Times,serif" font-size="14" text-anchor="start">title</text><polygon fill="none" stroke="#000" points="84.12 -1502.25 84.12 -1524.75 104.38 -1524.75 104.38 -1502.25 84.12 -1502.25"/><polygon fill="none" stroke="#000" points="104.38 -1502.25 104.38 -1524.75 169.62 -1524.75 169.62 -1502.25 104.38 -1502.25"/><text x="117.12" y="-1508.45" font-family="Times,serif" font-size="14" text-anchor="start">content</text><polygon fill="none" stroke="#000" points="84.12 -1479.75 84.12 -1502.25 104.38 -1502.25 104.38 -1479.75 84.12 -1479.75"/><polygon fill="none" stroke="#000" points="104.38 -1479.75 104.38 -1502.25 169.62 -1502.25 169.62 -1479.75 104.38 -1479.75"/><text x="115.25" y="-1485.95" font-family="Times,serif" font-size="14" text-anchor="start">position</text><polygon fill="none" stroke="#000" points="84.12 -1457.25 84.12 -1479.75 104.38 -1479.75 104.38 -1457.25 84.12 -1457.25"/><polygon fill="none" stroke="#000" points="104.38 -1457.25 104.38 -1479.75 169.62 -1479.75 169.62 -1457.25 104.38 -1457.25"/><text x="109.25" y="-1463.45" font-family="Times,serif" font-size="14" text-anchor="start">created_at</text><polygon fill="none" stroke="#000" points="84.12 -1434.75 84.12 -1457.25 104.38 -1457.25 104.38 -1434.75 84.12 -1434.75"/><polygon fill="none" stroke="#000" points="104.38 -1434.75 104.38 -1457.25 169.62 -1457.25 169.62 -1434.75 104.38 -1434.75"/><text x="107.38" y="-1440.95" font-family="Times,serif" font-size="14" text-anchor="start">updated_at</text></g><g id="node10" class="node"><title>pages</title><polygon fill="none" stroke="#000" points="348 -1571.25 348 -1593.75 433.5 -1593.75 433.5 -1571.25 348 -1571.25"/><text x="374.62" y="-1578.45" font-family="Times,serif" font-size="14" font-weight="bold" text-anchor="start">pages</text><polygon fill="none" stroke="#000" points="348 -1546.5 348 -1571.25 368.25 -1571.25 368.25 -1546.5 348 -1546.5"/><text x="351" y="-1554.95" font-family="Times,serif" font-size="14" text-anchor="start">🔑</text><polygon fill="none" stroke="#000" points="368.25 -1546.5 368.25 -1571.25 433.5 -1571.25 433.5 -1546.5 368.25 -1546.5"/><text x="395.62" y="-1553.83" font-family="Times,serif" font-size="14" text-anchor="start">id</text><polygon fill="none" stroke="#000" points="348 -1524 348 -1546.5 368.25 -1546.5 368.25 -1524 348 -1524"/><polygon fill="none" stroke="#000" points="368.25 -1524 368.25 -1546.5 433.5 -1546.5 433.5 -1524 368.25 -1524"/><text x="375" y="-1530.2" font-family="Times,serif" font-size="14" text-anchor="start">author_id</text><polygon fill="none" stroke="#000" points="348 -1501.5 348 -1524 368.25 -1524 368.25 -1501.5 348 -1501.5"/><polygon fill="none" stroke="#000" points="368.25 -1501.5 368.25 -1524 433.5 -1524 433.5 -1501.5 368.25 -1501.5"/><text x="390.38" y="-1507.7" font-family="Times,serif" font-size="14" text-anchor="start">title</text><polygon fill="none" stroke="#000" points="348 -1479 348 -1501.5 368.25 -1501.5 368.25 -1479 348 -1479"/><polygon fill="none" stroke="#000" points="368.25 -1479 368.25 -1501.5 433.5 -1501.5 433.5 -1479 368.25 -1479"/><text x="381" y="-1485.2" font-family="Times,serif" font-size="14" text-anchor="start">content</text><polygon fill="none" stroke="#000" points="348 -1456.5 348 -1479 368.25 -1479 368.25 -1456.5 348 -1456.5"/><polygon fill="none" stroke="#000" points="368.25 -1456.5 368.25 -1479 433.5 -1479 433.5 -1456.5 368.25 -1456.5"/><text x="373.12" y="-1462.7" font-family="Times,serif" font-size="14" text-anchor="start">created_at</text><polygon fill="none" stroke="#000" points="348 -1434 348 -1456.5 368.25 -1456.5 368.25 -1434 348 -1434"/><polygon fill="none" stroke="#000" points="368.25 -1434 368.25 -1456.5 433.5 -1456.5 433.5 -1434 368.25 -1434"/><text x="371.25" y="-1440.2" font-family="Times,serif" font-size="14" text-anchor="start">updated_at</text></g><g id="edge1" class="edge"><title>page_sections:e-&gt;pages:w</title><path fill="none" stroke="#000" d="M170.62,-1558.5C245.03,-1558.5 266.47,-1558.84 335.5,-1558.87"/><polygon fill="#000" stroke="#000" points="335.49 -1562.37 345.49 -1558.87 335.49 -1555.37 335.49 -1562.37"/></g><g id="node25" class="node"><title>users</title><polygon fill="none" stroke="#000" points="535.75 -1630.25 535.75 -1652.75 673 -1652.75 673 -1630.25 535.75 -1630.25"/><text x="589.38" y="-1637.45" font-family="Times,serif" font-size="14" font-weight="bold" text-anchor="start">users</text><polygon fill="none" stroke="#000" points="535.75 -1605.5 535.75 -1630.25 556 -1630.25 556 -1605.5 535.75 -1605.5"/><text x="538.75" y="-1613.95" font-family="Times,serif" font-size="14" text-anchor="start">🔑</text><polygon fill="none" stroke="#000" points="556 -1605.5 556 -1630.25 673 -1630.25 673 -1605.5 556 -1605.5"/><text x="609.25" y="-1612.83" font-family="Times,serif" font-size="14" text-anchor="start">id</text><polygon fill="none" stroke="#000" points="535.75 -1583 535.75 -1605.5 556 -1605.5 556 -1583 535.75 -1583"/><polygon fill="none" stroke="#000" points="556 -1583 556 -1605.5 673 -1605.5 673 -1583 556 -1583"/><text x="599.12" y="-1589.2" font-family="Times,serif" font-size="14" text-anchor="start">email</text><polygon fill="none" stroke="#000" points="535.75 -1560.5 535.75 -1583 556 -1583 556 -1560.5 535.75 -1560.5"/><polygon fill="none" stroke="#000" points="556 -1560.5 556 -1583 673 -1583 673 -1560.5 556 -1560.5"/><text x="589.38" y="-1566.7" font-family="Times,serif" font-size="14" text-anchor="start">is_admin</text><polygon fill="none" stroke="#000" points="535.75 -1538 535.75 -1560.5 556 -1560.5 556 -1538 535.75 -1538"/><polygon fill="none" stroke="#000" points="556 -1538 556 -1560.5 673 -1560.5 673 -1538 556 -1538"/><text x="586.75" y="-1544.2" font-family="Times,serif" font-size="14" text-anchor="start">created_at</text><polygon fill="none" stroke="#000" points="535.75 -1515.5 535.75 -1538 556 -1538 556 -1515.5 535.75 -1515.5"/><polygon fill="none" stroke="#000" points="556 -1515.5 556 -1538 673 -1538 673 -1515.5 556 -1515.5"/><text x="584.88" y="-1521.7" font-family="Times,serif" font-size="14" text-anchor="start">updated_at</text><polygon fill="none" stroke="#000" points="535.75 -1493 535.75 -1515.5 556 -1515.5 556 -1493 535.75 -1493"/><polygon fill="none" stroke="#000" points="556 -1493 556 -1515.5 673 -1515.5 673 -1493 556 -1493"/><text x="584.5" y="-1499.2" font-family="Times,serif" font-size="14" text-anchor="start">auth_token</text><polygon fill="none" stroke="#000" points="535.75 -1470.5 535.75 -1493 556 -1493 556 -1470.5 535.75 -1470.5"/><polygon fill="none" stroke="#000" points="556 -1470.5 556 -1493 673 -1493 673 -1470.5 556 -1470.5"/><text x="598.38" y="-1476.7" font-family="Times,serif" font-size="14" text-anchor="start">active</text><polygon fill="none" stroke="#000" points="535.75 -1448 535.75 -1470.5 556 -1470.5 556 -1448 535.75 -1448"/><polygon fill="none" stroke="#000" points="556 -1448 556 -1470.5 673 -1470.5 673 -1448 556 -1448"/><text x="559" y="-1454.2" font-family="Times,serif" font-size="14" text-anchor="start">password_encrypted</text><polygon fill="none" stroke="#000" points="535.75 -1425.5 535.75 -1448 556 -1448 556 -1425.5 535.75 -1425.5"/><polygon fill="none" stroke="#000" points="556 -1425.5 556 -1448 673 -1448 673 -1425.5 556 -1425.5"/><text x="598" y="-1431.7" font-family="Times,serif" font-size="14" text-anchor="start">avatar</text><polygon fill="none" stroke="#000" points="535.75 -1403 535.75 -1425.5 556 -1425.5 556 -1403 535.75 -1403"/><polygon fill="none" stroke="#000" points="556 -1403 556 -1425.5 673 -1425.5 673 -1403 556 -1403"/><text x="599.5" y="-1409.2" font-family="Times,serif" font-size="14" text-anchor="start">name</text></g><g id="edge13" class="edge"><title>pages:e-&gt;users:w</title><path fill="none" stroke="#000" d="M434.5,-1535.25C488.07,-1535.25 478.83,-1606.36 523.32,-1616.64"/><polygon fill="#000" stroke="#000" points="522.93 -1620.12 533.25 -1617.71 523.68 -1613.16 522.93 -1620.12"/></g><g id="node11" class="node"><title>password_reset</title><polygon fill="none" stroke="#000" points="343.12 -1385.75 343.12 -1408.25 438.38 -1408.25 438.38 -1385.75 343.12 -1385.75"/><text x="346.12" y="-1392.95" font-family="Times,serif" font-size="14" font-weight="bold" text-anchor="start">password_reset</text><polygon fill="none" stroke="#000" points="343.12 -1361 343.12 -1385.75 370.12 -1385.75 370.12 -1361 343.12 -1361"/><text x="349.5" y="-1369.45" font-family="Times,serif" font-size="14" text-anchor="start">🔑</text><polygon fill="none" stroke="#000" points="370.12 -1361 370.12 -1385.75 438.38 -1385.75 438.38 -1361 370.12 -1361"/><text x="399" y="-1368.33" font-family="Times,serif" font-size="14" text-anchor="start">id</text><polygon fill="none" stroke="#000" points="343.12 -1338.5 343.12 -1361 370.12 -1361 370.12 -1338.5 343.12 -1338.5"/><polygon fill="none" stroke="#000" points="370.12 -1338.5 370.12 -1361 438.38 -1361 438.38 -1338.5 370.12 -1338.5"/><text x="384.38" y="-1344.7" font-family="Times,serif" font-size="14" text-anchor="start">user_id</text><polygon fill="none" stroke="#000" points="343.12 -1316 343.12 -1338.5 370.12 -1338.5 370.12 -1316 343.12 -1316"/><polygon fill="none" stroke="#000" points="370.12 -1316 370.12 -1338.5 438.38 -1338.5 438.38 -1316 370.12 -1316"/><text x="391.5" y="-1322.2" font-family="Times,serif" font-size="14" text-anchor="start">code</text><polygon fill="none" stroke="#000" points="343.12 -1293.5 343.12 -1316 370.12 -1316 370.12 -1293.5 343.12 -1293.5"/><polygon fill="none" stroke="#000" points="370.12 -1293.5 370.12 -1316 438.38 -1316 438.38 -1293.5 370.12 -1293.5"/><text x="376.5" y="-1299.7" font-family="Times,serif" font-size="14" text-anchor="start">created_at</text></g><g id="edge11" class="edge"><title>password_reset:e-&gt;users:w</title><path fill="none" stroke="#000" d="M439.38,-1349.75C478.63,-1349.75 475.57,-1385.11 491.75,-1420.88 508.56,-1458.03 493.27,-1590.74 524.17,-1614.29"/><polygon fill="#000" stroke="#000" points="522.72 -1617.49 533.32 -1617.39 524.97 -1610.86 522.72 -1617.49"/></g><g id="node12" class="node"><title>provided_repositories</title><polygon fill="none" stroke="#000" points="60.88 -602.75 60.88 -625.25 192.88 -625.25 192.88 -602.75 60.88 -602.75"/><text x="63.88" y="-609.95" font-family="Times,serif" font-size="14" font-weight="bold" text-anchor="start">provided_repositories</text><polygon fill="none" stroke="#000" points="60.88 -578 60.88 -602.75 96.12 -602.75 96.12 -578 60.88 -578"/><text x="71.38" y="-586.45" font-family="Times,serif" font-size="14" text-anchor="start">🔑</text><polygon fill="none" stroke="#000" points="96.12 -578 96.12 -602.75 192.88 -602.75 192.88 -578 96.12 -578"/><text x="139.25" y="-585.33" font-family="Times,serif" font-size="14" text-anchor="start">id</text><polygon fill="none" stroke="#000" points="60.88 -555.5 60.88 -578 96.12 -578 96.12 -555.5 60.88 -555.5"/><polygon fill="none" stroke="#000" points="96.12 -555.5 96.12 -578 192.88 -578 192.88 -555.5 96.12 -555.5"/><text x="106.62" y="-561.7" font-family="Times,serif" font-size="14" text-anchor="start">integration_id</text><polygon fill="none" stroke="#000" points="60.88 -533 60.88 -555.5 96.12 -555.5 96.12 -533 60.88 -533"/><polygon fill="none" stroke="#000" points="96.12 -533 96.12 -555.5 192.88 -555.5 192.88 -533 96.12 -533"/><text x="117.12" y="-539.2" font-family="Times,serif" font-size="14" text-anchor="start">vendor_id</text><polygon fill="none" stroke="#000" points="60.88 -510.5 60.88 -533 96.12 -533 96.12 -510.5 60.88 -510.5"/><polygon fill="none" stroke="#000" points="96.12 -510.5 96.12 -533 192.88 -533 192.88 -510.5 96.12 -510.5"/><text x="129.5" y="-516.7" font-family="Times,serif" font-size="14" text-anchor="start">name</text><polygon fill="none" stroke="#000" points="60.88 -488 60.88 -510.5 96.12 -510.5 96.12 -488 60.88 -488"/><polygon fill="none" stroke="#000" points="96.12 -488 96.12 -510.5 192.88 -510.5 192.88 -488 96.12 -488"/><text x="126.5" y="-494.2" font-family="Times,serif" font-size="14" text-anchor="start">git_url</text><polygon fill="none" stroke="#000" points="60.88 -465.5 60.88 -488 96.12 -488 96.12 -465.5 60.88 -465.5"/><polygon fill="none" stroke="#000" points="96.12 -465.5 96.12 -488 192.88 -488 192.88 -465.5 96.12 -465.5"/><text x="128.38" y="-471.7" font-family="Times,serif" font-size="14" text-anchor="start">active</text><polygon fill="none" stroke="#000" points="60.88 -443 60.88 -465.5 96.12 -465.5 96.12 -443 60.88 -443"/><polygon fill="none" stroke="#000" points="96.12 -443 96.12 -465.5 192.88 -465.5 192.88 -443 96.12 -443"/><text x="116.75" y="-449.2" font-family="Times,serif" font-size="14" text-anchor="start">created_at</text><polygon fill="none" stroke="#000" points="60.88 -420.5 60.88 -443 96.12 -443 96.12 -420.5 60.88 -420.5"/><polygon fill="none" stroke="#000" points="96.12 -420.5 96.12 -443 192.88 -443 192.88 -420.5 96.12 -420.5"/><text x="114.88" y="-426.7" font-family="Times,serif" font-size="14" text-anchor="start">updated_at</text></g><g id="edge14" class="edge"><title>provided_repositories:e-&gt;integrations:w</title><path fill="none" stroke="#000" d="M193.88,-566.75C254.37,-566.75 272.23,-567.52 327.56,-567.62"/><polygon fill="#000" stroke="#000" points="327.23 -571.12 337.24 -567.62 327.24 -564.12 327.23 -571.12"/></g><g id="node13" class="node"><title>read_notifications</title><polygon fill="none" stroke="#000" points="335.62 -2338 335.62 -2360.5 445.88 -2360.5 445.88 -2338 335.62 -2338"/><text x="338.62" y="-2345.2" font-family="Times,serif" font-size="14" font-weight="bold" text-anchor="start">read_notifications</text><polygon fill="none" stroke="#000" points="335.62 -2313.25 335.62 -2338 358.12 -2338 358.12 -2313.25 335.62 -2313.25"/><text x="339.75" y="-2321.7" font-family="Times,serif" font-size="14" text-anchor="start">🔑</text><polygon fill="none" stroke="#000" points="358.12 -2313.25 358.12 -2338 445.88 -2338 445.88 -2313.25 358.12 -2313.25"/><text x="396.75" y="-2320.57" font-family="Times,serif" font-size="14" text-anchor="start">id</text><polygon fill="none" stroke="#000" points="335.62 -2290.75 335.62 -2313.25 358.12 -2313.25 358.12 -2290.75 335.62 -2290.75"/><polygon fill="none" stroke="#000" points="358.12 -2290.75 358.12 -2313.25 445.88 -2313.25 445.88 -2290.75 358.12 -2290.75"/><text x="382.12" y="-2296.95" font-family="Times,serif" font-size="14" text-anchor="start">user_id</text><polygon fill="none" stroke="#000" points="335.62 -2268.25 335.62 -2290.75 358.12 -2290.75 358.12 -2268.25 335.62 -2268.25"/><polygon fill="none" stroke="#000" points="358.12 -2268.25 358.12 -2290.75 445.88 -2290.75 445.88 -2268.25 358.12 -2268.25"/><text x="362.25" y="-2274.45" font-family="Times,serif" font-size="14" text-anchor="start">notification_id</text><polygon fill="none" stroke="#000" points="335.62 -2245.75 335.62 -2268.25 358.12 -2268.25 358.12 -2245.75 335.62 -2245.75"/><polygon fill="none" stroke="#000" points="358.12 -2245.75 358.12 -2268.25 445.88 -2268.25 445.88 -2245.75 358.12 -2245.75"/><text x="374.25" y="-2251.95" font-family="Times,serif" font-size="14" text-anchor="start">created_at</text><polygon fill="none" stroke="#000" points="335.62 -2223.25 335.62 -2245.75 358.12 -2245.75 358.12 -2223.25 335.62 -2223.25"/><polygon fill="none" stroke="#000" points="358.12 -2223.25 358.12 -2245.75 445.88 -2245.75 445.88 -2223.25 358.12 -2223.25"/><text x="372.38" y="-2229.45" font-family="Times,serif" font-size="14" text-anchor="start">updated_at</text></g><g id="edge2" class="edge"><title>read_notifications:e-&gt;notifications:w</title><path fill="none" stroke="#000" d="M446.88,-2279.5C493.38,-2279.5 507.8,-2279.61 549.17,-2279.62"/><polygon fill="#000" stroke="#000" points="549.11 -2283.12 559.11 -2279.62 549.11 -2276.12 549.11 -2283.12"/></g><g id="edge3" class="edge"><title>read_notifications:e-&gt;users:w</title><path fill="none" stroke="#000" d="M446.88,-2302C492.42,-2302 479.91,-2253.85 491.75,-2209.88 507.92,-2149.8 473.16,-1676.23 524.53,-1622.78"/><polygon fill="#000" stroke="#000" points="525.89 -1626.01 533.39 -1618.53 522.86 -1619.7 525.89 -1626.01"/></g><g id="node14" class="node"><title>refresh_tokens</title><polygon fill="none" stroke="#000" points="345 -1245 345 -1267.5 436.5 -1267.5 436.5 -1245 345 -1245"/><text x="348" y="-1252.2" font-family="Times,serif" font-size="14" font-weight="bold" text-anchor="start">refresh_tokens</text><polygon fill="none" stroke="#000" points="345 -1220.25 345 -1245 370.12 -1245 370.12 -1220.25 345 -1220.25"/><text x="350.44" y="-1228.7" font-family="Times,serif" font-size="14" text-anchor="start">🔑</text><polygon fill="none" stroke="#000" points="370.12 -1220.25 370.12 -1245 436.5 -1245 436.5 -1220.25 370.12 -1220.25"/><text x="398.06" y="-1227.58" font-family="Times,serif" font-size="14" text-anchor="start">id</text><polygon fill="none" stroke="#000" points="345 -1197.75 345 -1220.25 370.12 -1220.25 370.12 -1197.75 345 -1197.75"/><polygon fill="none" stroke="#000" points="370.12 -1197.75 370.12 -1220.25 436.5 -1220.25 436.5 -1197.75 370.12 -1197.75"/><text x="383.44" y="-1203.95" font-family="Times,serif" font-size="14" text-anchor="start">user_id</text><polygon fill="none" stroke="#000" points="345 -1175.25 345 -1197.75 370.12 -1197.75 370.12 -1175.25 345 -1175.25"/><polygon fill="none" stroke="#000" points="370.12 -1175.25 370.12 -1197.75 436.5 -1197.75 436.5 -1175.25 370.12 -1175.25"/><text x="388.31" y="-1181.45" font-family="Times,serif" font-size="14" text-anchor="start">token</text><polygon fill="none" stroke="#000" points="345 -1152.75 345 -1175.25 370.12 -1175.25 370.12 -1152.75 345 -1152.75"/><polygon fill="none" stroke="#000" points="370.12 -1152.75 370.12 -1175.25 436.5 -1175.25 436.5 -1152.75 370.12 -1152.75"/><text x="375.56" y="-1158.95" font-family="Times,serif" font-size="14" text-anchor="start">expires_at</text><polygon fill="none" stroke="#000" points="345 -1130.25 345 -1152.75 370.12 -1152.75 370.12 -1130.25 345 -1130.25"/><polygon fill="none" stroke="#000" points="370.12 -1130.25 370.12 -1152.75 436.5 -1152.75 436.5 -1130.25 370.12 -1130.25"/><text x="375.56" y="-1136.45" font-family="Times,serif" font-size="14" text-anchor="start">created_at</text></g><g id="edge6" class="edge"><title>refresh_tokens:e-&gt;users:w</title><path fill="none" stroke="#000" d="M437.5,-1209C477.52,-1209 476.65,-1243.81 491.75,-1280.88 518.67,-1346.97 465.66,-1589.25 523.55,-1615.55"/><polygon fill="#000" stroke="#000" points="522.77 -1618.97 533.27 -1617.57 524.19 -1612.11 522.77 -1618.97"/></g><g id="node15" class="node"><title>registration_token</title><polygon fill="none" stroke="#000" points="70.62 -2524.75 70.62 -2547.25 183.12 -2547.25 183.12 -2524.75 70.62 -2524.75"/><text x="73.62" y="-2531.95" font-family="Times,serif" font-size="14" font-weight="bold" text-anchor="start">registration_token</text><polygon fill="none" stroke="#000" points="70.62 -2500 70.62 -2524.75 104.38 -2524.75 104.38 -2500 70.62 -2500"/><text x="80.38" y="-2508.45" font-family="Times,serif" font-size="14" text-anchor="start">🔑</text><polygon fill="none" stroke="#000" points="104.38 -2500 104.38 -2524.75 183.12 -2524.75 183.12 -2500 104.38 -2500"/><text x="138.5" y="-2507.32" font-family="Times,serif" font-size="14" text-anchor="start">id</text><polygon fill="none" stroke="#000" points="70.62 -2477.5 70.62 -2500 104.38 -2500 104.38 -2477.5 70.62 -2477.5"/><polygon fill="none" stroke="#000" points="104.38 -2477.5 104.38 -2500 183.12 -2500 183.12 -2477.5 104.38 -2477.5"/><text x="128.75" y="-2483.7" font-family="Times,serif" font-size="14" text-anchor="start">token</text><polygon fill="none" stroke="#000" points="70.62 -2455 70.62 -2477.5 104.38 -2477.5 104.38 -2455 70.62 -2455"/><polygon fill="none" stroke="#000" points="104.38 -2455 104.38 -2477.5 183.12 -2477.5 183.12 -2455 104.38 -2455"/><text x="116" y="-2461.2" font-family="Times,serif" font-size="14" text-anchor="start">created_at</text><polygon fill="none" stroke="#000" points="70.62 -2432.5 70.62 -2455 104.38 -2455 104.38 -2432.5 70.62 -2432.5"/><polygon fill="none" stroke="#000" points="104.38 -2432.5 104.38 -2455 183.12 -2455 183.12 -2432.5 104.38 -2432.5"/><text x="114.12" y="-2438.7" font-family="Times,serif" font-size="14" text-anchor="start">updated_at</text></g><g id="node16" class="node"><title>repositories</title><polygon fill="none" stroke="#000" points="90.12 -2643.5 90.12 -2666 163.62 -2666 163.62 -2643.5 90.12 -2643.5"/><text x="93.12" y="-2650.7" font-family="Times,serif" font-size="14" font-weight="bold" text-anchor="start">repositories</text><polygon fill="none" stroke="#000" points="90.12 -2618.75 90.12 -2643.5 116 -2643.5 116 -2618.75 90.12 -2618.75"/><text x="95.94" y="-2627.2" font-family="Times,serif" font-size="14" text-anchor="start">🔑</text><polygon fill="none" stroke="#000" points="116 -2618.75 116 -2643.5 163.62 -2643.5 163.62 -2618.75 116 -2618.75"/><text x="134.56" y="-2626.07" font-family="Times,serif" font-size="14" text-anchor="start">id</text><polygon fill="none" stroke="#000" points="90.12 -2596.25 90.12 -2618.75 116 -2618.75 116 -2596.25 90.12 -2596.25"/><polygon fill="none" stroke="#000" points="116 -2596.25 116 -2618.75 163.62 -2618.75 163.62 -2596.25 116 -2596.25"/><text x="124.81" y="-2602.45" font-family="Times,serif" font-size="14" text-anchor="start">name</text><polygon fill="none" stroke="#000" points="90.12 -2573.75 90.12 -2596.25 116 -2596.25 116 -2573.75 90.12 -2573.75"/><polygon fill="none" stroke="#000" points="116 -2573.75 116 -2596.25 163.62 -2596.25 163.62 -2573.75 116 -2573.75"/><text x="121.81" y="-2579.95" font-family="Times,serif" font-size="14" text-anchor="start">git_url</text></g><g id="node17" class="node"><title>server_setting</title><polygon fill="none" stroke="#000" points="8 -2807 8 -2829.5 245.75 -2829.5 245.75 -2807 8 -2807"/><text x="86.38" y="-2814.2" font-family="Times,serif" font-size="14" font-weight="bold" text-anchor="start">server_setting</text><polygon fill="none" stroke="#000" points="8 -2782.25 8 -2807 28.25 -2807 28.25 -2782.25 8 -2782.25"/><text x="11" y="-2790.7" font-family="Times,serif" font-size="14" text-anchor="start">🔑</text><polygon fill="none" stroke="#000" points="28.25 -2782.25 28.25 -2807 245.75 -2807 245.75 -2782.25 28.25 -2782.25"/><text x="131.75" y="-2789.57" font-family="Times,serif" font-size="14" text-anchor="start">id</text><polygon fill="none" stroke="#000" points="8 -2759.75 8 -2782.25 28.25 -2782.25 28.25 -2759.75 8 -2759.75"/><polygon fill="none" stroke="#000" points="28.25 -2759.75 28.25 -2782.25 245.75 -2782.25 245.75 -2759.75 28.25 -2759.75"/><text x="31.62" y="-2765.95" font-family="Times,serif" font-size="14" text-anchor="start">security_allowed_register_domain_list</text><polygon fill="none" stroke="#000" points="8 -2737.25 8 -2759.75 28.25 -2759.75 28.25 -2737.25 8 -2737.25"/><polygon fill="none" stroke="#000" points="28.25 -2737.25 28.25 -2759.75 245.75 -2759.75 245.75 -2737.25 28.25 -2737.25"/><text x="31.25" y="-2743.45" font-family="Times,serif" font-size="14" text-anchor="start">security_disable_client_side_telemetry</text><polygon fill="none" stroke="#000" points="8 -2714.75 8 -2737.25 28.25 -2737.25 28.25 -2714.75 8 -2714.75"/><polygon fill="none" stroke="#000" points="28.25 -2714.75 28.25 -2737.25 245.75 -2737.25 245.75 -2714.75 28.25 -2714.75"/><text x="78.88" y="-2720.95" font-family="Times,serif" font-size="14" text-anchor="start">network_external_url</text><polygon fill="none" stroke="#000" points="8 -2692.25 8 -2714.75 28.25 -2714.75 28.25 -2692.25 8 -2692.25"/><polygon fill="none" stroke="#000" points="28.25 -2692.25 28.25 -2714.75 245.75 -2714.75 245.75 -2692.25 28.25 -2692.25"/><text x="67.25" y="-2698.45" font-family="Times,serif" font-size="14" text-anchor="start">billing_enterprise_license</text></g><g id="node18" class="node"><title>source_id_read_access_policies</title><polygon fill="none" stroke="#000" points="297.75 -895 297.75 -917.5 483.75 -917.5 483.75 -895 297.75 -895"/><text x="300.75" y="-902.2" font-family="Times,serif" font-size="14" font-weight="bold" text-anchor="start">source_id_read_access_policies</text><polygon fill="none" stroke="#000" points="297.75 -870.25 297.75 -895 358.88 -895 358.88 -870.25 297.75 -870.25"/><text x="321.19" y="-878.7" font-family="Times,serif" font-size="14" text-anchor="start">🔑</text><polygon fill="none" stroke="#000" points="358.88 -870.25 358.88 -895 483.75 -895 483.75 -870.25 358.88 -870.25"/><text x="416.06" y="-877.58" font-family="Times,serif" font-size="14" text-anchor="start">id</text><polygon fill="none" stroke="#000" points="297.75 -847.75 297.75 -870.25 358.88 -870.25 358.88 -847.75 297.75 -847.75"/><polygon fill="none" stroke="#000" points="358.88 -847.75 358.88 -870.25 483.75 -870.25 483.75 -847.75 358.88 -847.75"/><text x="395.06" y="-853.95" font-family="Times,serif" font-size="14" text-anchor="start">source_id</text><polygon fill="none" stroke="#000" points="297.75 -825.25 297.75 -847.75 358.88 -847.75 358.88 -825.25 297.75 -825.25"/><polygon fill="none" stroke="#000" points="358.88 -825.25 358.88 -847.75 483.75 -847.75 483.75 -825.25 358.88 -825.25"/><text x="382.31" y="-831.45" font-family="Times,serif" font-size="14" text-anchor="start">user_group_id</text><polygon fill="none" stroke="#000" points="297.75 -802.75 297.75 -825.25 358.88 -825.25 358.88 -802.75 297.75 -802.75"/><polygon fill="none" stroke="#000" points="358.88 -802.75 358.88 -825.25 483.75 -825.25 483.75 -802.75 358.88 -802.75"/><text x="393.56" y="-808.95" font-family="Times,serif" font-size="14" text-anchor="start">created_at</text><polygon fill="none" stroke="#000" points="297.75 -780.25 297.75 -802.75 358.88 -802.75 358.88 -780.25 297.75 -780.25"/><polygon fill="none" stroke="#000" points="358.88 -780.25 358.88 -802.75 483.75 -802.75 483.75 -780.25 358.88 -780.25"/><text x="391.69" y="-786.45" font-family="Times,serif" font-size="14" text-anchor="start">updated_at</text></g><g id="node24" class="node"><title>user_groups</title><polygon fill="none" stroke="#000" points="561.62 -942.75 561.62 -965.25 647.12 -965.25 647.12 -942.75 561.62 -942.75"/><text x="568.75" y="-949.95" font-family="Times,serif" font-size="14" font-weight="bold" text-anchor="start">user_groups</text><polygon fill="none" stroke="#000" points="561.62 -918 561.62 -942.75 581.88 -942.75 581.88 -918 561.62 -918"/><text x="564.62" y="-926.45" font-family="Times,serif" font-size="14" text-anchor="start">🔑</text><polygon fill="none" stroke="#000" points="581.88 -918 581.88 -942.75 647.12 -942.75 647.12 -918 581.88 -918"/><text x="609.25" y="-925.33" font-family="Times,serif" font-size="14" text-anchor="start">id</text><polygon fill="none" stroke="#000" points="561.62 -895.5 561.62 -918 581.88 -918 581.88 -895.5 561.62 -895.5"/><polygon fill="none" stroke="#000" points="581.88 -895.5 581.88 -918 647.12 -918 647.12 -895.5 581.88 -895.5"/><text x="599.5" y="-901.7" font-family="Times,serif" font-size="14" text-anchor="start">name</text><polygon fill="none" stroke="#000" points="561.62 -873 561.62 -895.5 581.88 -895.5 581.88 -873 561.62 -873"/><polygon fill="none" stroke="#000" points="581.88 -873 581.88 -895.5 647.12 -895.5 647.12 -873 581.88 -873"/><text x="586.75" y="-879.2" font-family="Times,serif" font-size="14" text-anchor="start">created_at</text><polygon fill="none" stroke="#000" points="561.62 -850.5 561.62 -873 581.88 -873 581.88 -850.5 561.62 -850.5"/><polygon fill="none" stroke="#000" points="581.88 -850.5 581.88 -873 647.12 -873 647.12 -850.5 581.88 -850.5"/><text x="584.88" y="-856.7" font-family="Times,serif" font-size="14" text-anchor="start">updated_at</text></g><g id="edge4" class="edge"><title>source_id_read_access_policies:e-&gt;user_groups:w</title><path fill="none" stroke="#000" d="M484.75,-836.5C534.21,-836.5 511.37,-916.28 549.53,-928.75"/><polygon fill="#000" stroke="#000" points="548.73 -932.17 559.13 -930.16 549.74 -925.24 548.73 -932.17"/></g><g id="node19" class="node"><title>thread_messages</title><polygon fill="none" stroke="#000" points="46.62 -2198.5 46.62 -2221 207.12 -2221 207.12 -2198.5 46.62 -2198.5"/><text x="77.75" y="-2205.7" font-family="Times,serif" font-size="14" font-weight="bold" text-anchor="start">thread_messages</text><polygon fill="none" stroke="#000" points="46.62 -2173.75 46.62 -2198.5 66.88 -2198.5 66.88 -2173.75 46.62 -2173.75"/><text x="49.62" y="-2182.2" font-family="Times,serif" font-size="14" text-anchor="start">🔑</text><polygon fill="none" stroke="#000" points="66.88 -2173.75 66.88 -2198.5 207.12 -2198.5 207.12 -2173.75 66.88 -2173.75"/><text x="131.75" y="-2181.07" font-family="Times,serif" font-size="14" text-anchor="start">id</text><polygon fill="none" stroke="#000" points="46.62 -2151.25 46.62 -2173.75 66.88 -2173.75 66.88 -2151.25 46.62 -2151.25"/><polygon fill="none" stroke="#000" points="66.88 -2151.25 66.88 -2173.75 207.12 -2173.75 207.12 -2151.25 66.88 -2151.25"/><text x="111.5" y="-2157.45" font-family="Times,serif" font-size="14" text-anchor="start">thread_id</text><polygon fill="none" stroke="#000" points="46.62 -2128.75 46.62 -2151.25 66.88 -2151.25 66.88 -2128.75 46.62 -2128.75"/><polygon fill="none" stroke="#000" points="66.88 -2128.75 66.88 -2151.25 207.12 -2151.25 207.12 -2128.75 66.88 -2128.75"/><text x="126.5" y="-2134.95" font-family="Times,serif" font-size="14" text-anchor="start">role</text><polygon fill="none" stroke="#000" points="46.62 -2106.25 46.62 -2128.75 66.88 -2128.75 66.88 -2106.25 46.62 -2106.25"/><polygon fill="none" stroke="#000" points="66.88 -2106.25 66.88 -2128.75 207.12 -2128.75 207.12 -2106.25 66.88 -2106.25"/><text x="117.12" y="-2112.45" font-family="Times,serif" font-size="14" text-anchor="start">content</text><polygon fill="none" stroke="#000" points="46.62 -2083.75 46.62 -2106.25 66.88 -2106.25 66.88 -2083.75 46.62 -2083.75"/><polygon fill="none" stroke="#000" points="66.88 -2083.75 66.88 -2106.25 207.12 -2106.25 207.12 -2083.75 66.88 -2083.75"/><text x="88.25" y="-2089.95" font-family="Times,serif" font-size="14" text-anchor="start">code_attachments</text><polygon fill="none" stroke="#000" points="46.62 -2061.25 46.62 -2083.75 66.88 -2083.75 66.88 -2061.25 46.62 -2061.25"/><polygon fill="none" stroke="#000" points="66.88 -2061.25 66.88 -2083.75 207.12 -2083.75 207.12 -2061.25 66.88 -2061.25"/><text x="69.88" y="-2067.45" font-family="Times,serif" font-size="14" text-anchor="start">client_code_attachments</text><polygon fill="none" stroke="#000" points="46.62 -2038.75 46.62 -2061.25 66.88 -2061.25 66.88 -2038.75 46.62 -2038.75"/><polygon fill="none" stroke="#000" points="66.88 -2038.75 66.88 -2061.25 207.12 -2061.25 207.12 -2038.75 66.88 -2038.75"/><text x="91.25" y="-2044.95" font-family="Times,serif" font-size="14" text-anchor="start">doc_attachments</text><polygon fill="none" stroke="#000" points="46.62 -2016.25 46.62 -2038.75 66.88 -2038.75 66.88 -2016.25 46.62 -2016.25"/><polygon fill="none" stroke="#000" points="66.88 -2016.25 66.88 -2038.75 207.12 -2038.75 207.12 -2016.25 66.88 -2016.25"/><text x="109.25" y="-2022.45" font-family="Times,serif" font-size="14" text-anchor="start">created_at</text><polygon fill="none" stroke="#000" points="46.62 -1993.75 46.62 -2016.25 66.88 -2016.25 66.88 -1993.75 46.62 -1993.75"/><polygon fill="none" stroke="#000" points="66.88 -1993.75 66.88 -2016.25 207.12 -2016.25 207.12 -1993.75 66.88 -1993.75"/><text x="107.38" y="-1999.95" font-family="Times,serif" font-size="14" text-anchor="start">updated_at</text><polygon fill="none" stroke="#000" points="46.62 -1971.25 46.62 -1993.75 66.88 -1993.75 66.88 -1971.25 46.62 -1971.25"/><polygon fill="none" stroke="#000" points="66.88 -1971.25 66.88 -1993.75 207.12 -1993.75 207.12 -1971.25 66.88 -1971.25"/><text x="94.62" y="-1977.45" font-family="Times,serif" font-size="14" text-anchor="start">code_source_id</text><polygon fill="none" stroke="#000" points="46.62 -1948.75 46.62 -1971.25 66.88 -1971.25 66.88 -1948.75 46.62 -1948.75"/><polygon fill="none" stroke="#000" points="66.88 -1948.75 66.88 -1971.25 207.12 -1971.25 207.12 -1948.75 66.88 -1948.75"/><text x="107" y="-1954.95" font-family="Times,serif" font-size="14" text-anchor="start">attachment</text></g><g id="node20" class="node"><title>threads</title><polygon fill="none" stroke="#000" points="327 -2174.25 327 -2196.75 454.5 -2196.75 454.5 -2174.25 327 -2174.25"/><text x="369" y="-2181.45" font-family="Times,serif" font-size="14" font-weight="bold" text-anchor="start">threads</text><polygon fill="none" stroke="#000" points="327 -2149.5 327 -2174.25 347.25 -2174.25 347.25 -2149.5 327 -2149.5"/><text x="330" y="-2157.95" font-family="Times,serif" font-size="14" text-anchor="start">🔑</text><polygon fill="none" stroke="#000" points="347.25 -2149.5 347.25 -2174.25 454.5 -2174.25 454.5 -2149.5 347.25 -2149.5"/><text x="395.62" y="-2156.82" font-family="Times,serif" font-size="14" text-anchor="start">id</text><polygon fill="none" stroke="#000" points="327 -2127 327 -2149.5 347.25 -2149.5 347.25 -2127 327 -2127"/><polygon fill="none" stroke="#000" points="347.25 -2127 347.25 -2149.5 454.5 -2149.5 454.5 -2127 347.25 -2127"/><text x="364.5" y="-2133.2" font-family="Times,serif" font-size="14" text-anchor="start">is_ephemeral</text><polygon fill="none" stroke="#000" points="327 -2104.5 327 -2127 347.25 -2127 347.25 -2104.5 327 -2104.5"/><polygon fill="none" stroke="#000" points="347.25 -2104.5 347.25 -2127 454.5 -2127 454.5 -2104.5 347.25 -2104.5"/><text x="381" y="-2110.7" font-family="Times,serif" font-size="14" text-anchor="start">user_id</text><polygon fill="none" stroke="#000" points="327 -2082 327 -2104.5 347.25 -2104.5 347.25 -2082 327 -2082"/><polygon fill="none" stroke="#000" points="347.25 -2082 347.25 -2104.5 454.5 -2104.5 454.5 -2082 347.25 -2082"/><text x="373.12" y="-2088.2" font-family="Times,serif" font-size="14" text-anchor="start">created_at</text><polygon fill="none" stroke="#000" points="327 -2059.5 327 -2082 347.25 -2082 347.25 -2059.5 327 -2059.5"/><polygon fill="none" stroke="#000" points="347.25 -2059.5 347.25 -2082 454.5 -2082 454.5 -2059.5 347.25 -2059.5"/><text x="371.25" y="-2065.7" font-family="Times,serif" font-size="14" text-anchor="start">updated_at</text><polygon fill="none" stroke="#000" points="327 -2037 327 -2059.5 347.25 -2059.5 347.25 -2037 327 -2037"/><polygon fill="none" stroke="#000" points="347.25 -2037 347.25 -2059.5 454.5 -2059.5 454.5 -2037 347.25 -2037"/><text x="350.25" y="-2043.2" font-family="Times,serif" font-size="14" text-anchor="start">relevant_questions</text></g><g id="edge5" class="edge"><title>thread_messages:e-&gt;threads:w</title><path fill="none" stroke="#000" d="M208.12,-2162.5C256.52,-2162.5 271.39,-2161.97 314.68,-2161.89"/><polygon fill="#000" stroke="#000" points="314.49 -2165.39 324.49 -2161.88 314.48 -2158.39 314.49 -2165.39"/></g><g id="edge12" class="edge"><title>threads:e-&gt;users:w</title><path fill="none" stroke="#000" d="M455.5,-2115.75C499.4,-2115.75 481.29,-2066.51 491.75,-2023.88 501.72,-1983.26 491.3,-1672.49 525.15,-1624.18"/><polygon fill="#000" stroke="#000" points="527.05 -1627.12 533.48 -1618.71 523.2 -1621.27 527.05 -1627.12"/></g><g id="node21" class="node"><title>user_completions</title><polygon fill="none" stroke="#000" points="337.12 -1988 337.12 -2010.5 444.38 -2010.5 444.38 -1988 337.12 -1988"/><text x="340.12" y="-1995.2" font-family="Times,serif" font-size="14" font-weight="bold" text-anchor="start">user_completions</text><polygon fill="none" stroke="#000" points="337.12 -1963.25 337.12 -1988 358.5 -1988 358.5 -1963.25 337.12 -1963.25"/><text x="340.69" y="-1971.7" font-family="Times,serif" font-size="14" text-anchor="start">🔑</text><polygon fill="none" stroke="#000" points="358.5 -1963.25 358.5 -1988 444.38 -1988 444.38 -1963.25 358.5 -1963.25"/><text x="396.19" y="-1970.58" font-family="Times,serif" font-size="14" text-anchor="start">id</text><polygon fill="none" stroke="#000" points="337.12 -1940.75 337.12 -1963.25 358.5 -1963.25 358.5 -1940.75 337.12 -1940.75"/><polygon fill="none" stroke="#000" points="358.5 -1940.75 358.5 -1963.25 444.38 -1963.25 444.38 -1940.75 358.5 -1940.75"/><text x="381.56" y="-1946.95" font-family="Times,serif" font-size="14" text-anchor="start">user_id</text><polygon fill="none" stroke="#000" points="337.12 -1918.25 337.12 -1940.75 358.5 -1940.75 358.5 -1918.25 337.12 -1918.25"/><polygon fill="none" stroke="#000" points="358.5 -1918.25 358.5 -1940.75 444.38 -1940.75 444.38 -1918.25 358.5 -1918.25"/><text x="362.06" y="-1924.45" font-family="Times,serif" font-size="14" text-anchor="start">completion_id</text><polygon fill="none" stroke="#000" points="337.12 -1895.75 337.12 -1918.25 358.5 -1918.25 358.5 -1895.75 337.12 -1895.75"/><polygon fill="none" stroke="#000" points="358.5 -1895.75 358.5 -1918.25 444.38 -1918.25 444.38 -1895.75 358.5 -1895.75"/><text x="377.06" y="-1901.95" font-family="Times,serif" font-size="14" text-anchor="start">language</text><polygon fill="none" stroke="#000" points="337.12 -1873.25 337.12 -1895.75 358.5 -1895.75 358.5 -1873.25 337.12 -1873.25"/><polygon fill="none" stroke="#000" points="358.5 -1873.25 358.5 -1895.75 444.38 -1895.75 444.38 -1873.25 358.5 -1873.25"/><text x="385.69" y="-1879.45" font-family="Times,serif" font-size="14" text-anchor="start">views</text><polygon fill="none" stroke="#000" points="337.12 -1850.75 337.12 -1873.25 358.5 -1873.25 358.5 -1850.75 337.12 -1850.75"/><polygon fill="none" stroke="#000" points="358.5 -1850.75 358.5 -1873.25 444.38 -1873.25 444.38 -1850.75 358.5 -1850.75"/><text x="383.44" y="-1856.95" font-family="Times,serif" font-size="14" text-anchor="start">selects</text><polygon fill="none" stroke="#000" points="337.12 -1828.25 337.12 -1850.75 358.5 -1850.75 358.5 -1828.25 337.12 -1828.25"/><polygon fill="none" stroke="#000" points="358.5 -1828.25 358.5 -1850.75 444.38 -1850.75 444.38 -1828.25 358.5 -1828.25"/><text x="375.19" y="-1834.45" font-family="Times,serif" font-size="14" text-anchor="start">dismisses</text><polygon fill="none" stroke="#000" points="337.12 -1805.75 337.12 -1828.25 358.5 -1828.25 358.5 -1805.75 337.12 -1805.75"/><polygon fill="none" stroke="#000" points="358.5 -1805.75 358.5 -1828.25 444.38 -1828.25 444.38 -1805.75 358.5 -1805.75"/><text x="373.69" y="-1811.95" font-family="Times,serif" font-size="14" text-anchor="start">created_at</text><polygon fill="none" stroke="#000" points="337.12 -1783.25 337.12 -1805.75 358.5 -1805.75 358.5 -1783.25 337.12 -1783.25"/><polygon fill="none" stroke="#000" points="358.5 -1783.25 358.5 -1805.75 444.38 -1805.75 444.38 -1783.25 358.5 -1783.25"/><text x="371.81" y="-1789.45" font-family="Times,serif" font-size="14" text-anchor="start">updated_at</text></g><g id="edge8" class="edge"><title>user_completions:e-&gt;users:w</title><path fill="none" stroke="#000" d="M445.38,-1952C480.58,-1952 494.03,-1671.64 525.59,-1624.55"/><polygon fill="#000" stroke="#000" points="527.5 -1627.48 533.53 -1618.77 523.38 -1621.82 527.5 -1627.48"/></g><g id="node22" class="node"><title>user_events</title><polygon fill="none" stroke="#000" points="349.88 -1735 349.88 -1757.5 431.62 -1757.5 431.62 -1735 349.88 -1735"/><text x="357" y="-1742.2" font-family="Times,serif" font-size="14" font-weight="bold" text-anchor="start">user_events</text><polygon fill="none" stroke="#000" points="349.88 -1710.25 349.88 -1735 370.12 -1735 370.12 -1710.25 349.88 -1710.25"/><text x="352.88" y="-1718.7" font-family="Times,serif" font-size="14" text-anchor="start">🔑</text><polygon fill="none" stroke="#000" points="370.12 -1710.25 370.12 -1735 431.62 -1735 431.62 -1710.25 370.12 -1710.25"/><text x="395.62" y="-1717.58" font-family="Times,serif" font-size="14" text-anchor="start">id</text><polygon fill="none" stroke="#000" points="349.88 -1687.75 349.88 -1710.25 370.12 -1710.25 370.12 -1687.75 349.88 -1687.75"/><polygon fill="none" stroke="#000" points="370.12 -1687.75 370.12 -1710.25 431.62 -1710.25 431.62 -1687.75 370.12 -1687.75"/><text x="381" y="-1693.95" font-family="Times,serif" font-size="14" text-anchor="start">user_id</text><polygon fill="none" stroke="#000" points="349.88 -1665.25 349.88 -1687.75 370.12 -1687.75 370.12 -1665.25 349.88 -1665.25"/><polygon fill="none" stroke="#000" points="370.12 -1665.25 370.12 -1687.75 431.62 -1687.75 431.62 -1665.25 370.12 -1665.25"/><text x="388.88" y="-1671.45" font-family="Times,serif" font-size="14" text-anchor="start">kind</text><polygon fill="none" stroke="#000" points="349.88 -1642.75 349.88 -1665.25 370.12 -1665.25 370.12 -1642.75 349.88 -1642.75"/><polygon fill="none" stroke="#000" points="370.12 -1642.75 370.12 -1665.25 431.62 -1665.25 431.62 -1642.75 370.12 -1642.75"/><text x="373.12" y="-1648.95" font-family="Times,serif" font-size="14" text-anchor="start">created_at</text><polygon fill="none" stroke="#000" points="349.88 -1620.25 349.88 -1642.75 370.12 -1642.75 370.12 -1620.25 349.88 -1620.25"/><polygon fill="none" stroke="#000" points="370.12 -1620.25 370.12 -1642.75 431.62 -1642.75 431.62 -1620.25 370.12 -1620.25"/><text x="379.5" y="-1626.45" font-family="Times,serif" font-size="14" text-anchor="start">payload</text></g><g id="edge7" class="edge"><title>user_events:e-&gt;users:w</title><path fill="none" stroke="#000" d="M432.62,-1699C486.52,-1699 478.37,-1628.88 523.54,-1619.02"/><polygon fill="#000" stroke="#000" points="523.65 -1622.53 533.24 -1618.03 522.94 -1615.56 523.65 -1622.53"/></g><g id="node23" class="node"><title>user_group_memberships</title><polygon fill="none" stroke="#000" points="312 -1081.25 312 -1103.75 469.5 -1103.75 469.5 -1081.25 312 -1081.25"/><text x="315" y="-1088.45" font-family="Times,serif" font-size="14" font-weight="bold" text-anchor="start">user_group_memberships</text><polygon fill="none" stroke="#000" points="312 -1056.5 312 -1081.25 353.62 -1081.25 353.62 -1056.5 312 -1056.5"/><text x="325.69" y="-1064.95" font-family="Times,serif" font-size="14" text-anchor="start">🔑</text><polygon fill="none" stroke="#000" points="353.62 -1056.5 353.62 -1081.25 469.5 -1081.25 469.5 -1056.5 353.62 -1056.5"/><text x="406.31" y="-1063.83" font-family="Times,serif" font-size="14" text-anchor="start">id</text><polygon fill="none" stroke="#000" points="312 -1034 312 -1056.5 353.62 -1056.5 353.62 -1034 312 -1034"/><polygon fill="none" stroke="#000" points="353.62 -1034 353.62 -1056.5 469.5 -1056.5 469.5 -1034 353.62 -1034"/><text x="391.69" y="-1040.2" font-family="Times,serif" font-size="14" text-anchor="start">user_id</text><polygon fill="none" stroke="#000" points="312 -1011.5 312 -1034 353.62 -1034 353.62 -1011.5 312 -1011.5"/><polygon fill="none" stroke="#000" points="353.62 -1011.5 353.62 -1034 469.5 -1034 469.5 -1011.5 353.62 -1011.5"/><text x="372.56" y="-1017.7" font-family="Times,serif" font-size="14" text-anchor="start">user_group_id</text><polygon fill="none" stroke="#000" points="312 -989 312 -1011.5 353.62 -1011.5 353.62 -989 312 -989"/><polygon fill="none" stroke="#000" points="353.62 -989 353.62 -1011.5 469.5 -1011.5 469.5 -989 353.62 -989"/><text x="367.31" y="-995.2" font-family="Times,serif" font-size="14" text-anchor="start">is_group_admin</text><polygon fill="none" stroke="#000" points="312 -966.5 312 -989 353.62 -989 353.62 -966.5 312 -966.5"/><polygon fill="none" stroke="#000" points="353.62 -966.5 353.62 -989 469.5 -989 469.5 -966.5 353.62 -966.5"/><text x="383.81" y="-972.7" font-family="Times,serif" font-size="14" text-anchor="start">created_at</text><polygon fill="none" stroke="#000" points="312 -944 312 -966.5 353.62 -966.5 353.62 -944 312 -944"/><polygon fill="none" stroke="#000" points="353.62 -944 353.62 -966.5 469.5 -966.5 469.5 -944 353.62 -944"/><text x="381.94" y="-950.2" font-family="Times,serif" font-size="14" text-anchor="start">updated_at</text></g><g id="edge9" class="edge"><title>user_group_memberships:e-&gt;user_groups:w</title><path fill="none" stroke="#000" d="M470.5,-1022.75C523.71,-1022.75 506.39,-943.24 549.41,-931.75"/><polygon fill="#000" stroke="#000" points="549.62 -935.25 559.12 -930.56 548.77 -928.31 549.62 -935.25"/></g><g id="edge10" class="edge"><title>user_group_memberships:e-&gt;users:w</title><path fill="none" stroke="#000" d="M470.5,-1045.25C530.77,-1045.25 477.76,-1552.74 524.76,-1612.21"/><polygon fill="#000" stroke="#000" points="523.01 -1615.24 533.43 -1617.13 526.46 -1609.15 523.01 -1615.24"/></g><g id="node26" class="node"><title>web_documents</title><polygon fill="none" stroke="#000" points="77.38 -2993.25 77.38 -3015.75 176.38 -3015.75 176.38 -2993.25 77.38 -2993.25"/><text x="80.38" y="-3000.45" font-family="Times,serif" font-size="14" font-weight="bold" text-anchor="start">web_documents</text><polygon fill="none" stroke="#000" points="77.38 -2968.5 77.38 -2993.25 104.38 -2993.25 104.38 -2968.5 77.38 -2968.5"/><text x="83.75" y="-2976.95" font-family="Times,serif" font-size="14" text-anchor="start">🔑</text><polygon fill="none" stroke="#000" points="104.38 -2968.5 104.38 -2993.25 176.38 -2993.25 176.38 -2968.5 104.38 -2968.5"/><text x="135.12" y="-2975.82" font-family="Times,serif" font-size="14" text-anchor="start">id</text><polygon fill="none" stroke="#000" points="77.38 -2946 77.38 -2968.5 104.38 -2968.5 104.38 -2946 77.38 -2946"/><polygon fill="none" stroke="#000" points="104.38 -2946 104.38 -2968.5 176.38 -2968.5 176.38 -2946 104.38 -2946"/><text x="125.38" y="-2952.2" font-family="Times,serif" font-size="14" text-anchor="start">name</text><polygon fill="none" stroke="#000" points="77.38 -2923.5 77.38 -2946 104.38 -2946 104.38 -2923.5 77.38 -2923.5"/><polygon fill="none" stroke="#000" points="104.38 -2923.5 104.38 -2946 176.38 -2946 176.38 -2923.5 104.38 -2923.5"/><text x="132.88" y="-2929.7" font-family="Times,serif" font-size="14" text-anchor="start">url</text><polygon fill="none" stroke="#000" points="77.38 -2901 77.38 -2923.5 104.38 -2923.5 104.38 -2901 77.38 -2901"/><polygon fill="none" stroke="#000" points="104.38 -2901 104.38 -2923.5 176.38 -2923.5 176.38 -2901 104.38 -2901"/><text x="116.38" y="-2907.2" font-family="Times,serif" font-size="14" text-anchor="start">is_preset</text><polygon fill="none" stroke="#000" points="77.38 -2878.5 77.38 -2901 104.38 -2901 104.38 -2878.5 77.38 -2878.5"/><polygon fill="none" stroke="#000" points="104.38 -2878.5 104.38 -2901 176.38 -2901 176.38 -2878.5 104.38 -2878.5"/><text x="112.62" y="-2884.7" font-family="Times,serif" font-size="14" text-anchor="start">created_at</text><polygon fill="none" stroke="#000" points="77.38 -2856 77.38 -2878.5 104.38 -2878.5 104.38 -2856 77.38 -2856"/><polygon fill="none" stroke="#000" points="104.38 -2856 104.38 -2878.5 176.38 -2878.5 176.38 -2856 104.38 -2856"/><text x="110.75" y="-2862.2" font-family="Times,serif" font-size="14" text-anchor="start">updated_at</text></g></g></svg>